<svg id="Layer_1" data-name="Layer 1" xmlns="http://www.w3.org/2000/svg" viewBox="0 0 641.89 375.78"><defs><style>.cls-1,.cls-3{fill:#fff;}.cls-2,.cls-4{fill:none;}.cls-2,.cls-3,.cls-4{stroke:#000;stroke-miterlimit:10;}.cls-2,.cls-3{stroke-width:0.31px;}.cls-4{stroke-width:0.12px;}.cls-5{opacity:0.75;font-family:OpenSans-Regular, Open Sans;}.cls-5,.cls-7{font-size:10px;}.cls-6{font-family:OpenSans-Italic, Open Sans;font-style:italic;}.cls-7{opacity:0.3;font-family:OpenSans-Light, Open Sans;font-weight:300;}.cls-8{letter-spacing:3.25em;}.cls-9{letter-spacing:3.34em;}.cls-10{letter-spacing:2.12em;}</style></defs><title>cookbook-graphics</title><rect class="cls-1" width="641.89" height="366.52"/><path class="cls-2" d="M148.74,56.31c-.08-.07-.06-.13-.24-.12-.19-1.56-1.51-2.94-1.21-4.65a10.93,10.93,0,0,1,2-4.17c2.09-3,5.46-4.38,9-6.21a23.73,23.73,0,0,1,5.36-2.41c2.07-.54,4.11-1,6.18-1.55,8.28-2,16.59-4.7,25.46-4.68,5,0,10,.57,15,.61a53.86,53.86,0,0,1,9.59,1,40.18,40.18,0,0,0,4.22.52,7.41,7.41,0,0,1,2.42.88,13.15,13.15,0,0,0,3.41.69c1.64.22,3.32.56,4.91.94,1.44.34,2.62,1.13,4.06,1.47s2.72.65,4,1.09,2.65,1.31,4,1.88c3.1,1.3,8.39,4,8.5,7.14.05,1.38.89,2.83.73,4.17-.1.88-.64,1.7-.73,2.62a4.32,4.32,0,0,1-.95,2.36,12.68,12.68,0,0,1-3.37,3,16.12,16.12,0,0,1-6.4,2.34c-4,.85-7.92,1.62-11.94,2.43a78.62,78.62,0,0,1-13.29,1.51c-5.51.15-10.87,1.14-16.45,1.14-3.86,0-7.71,0-11.55-.33-5.36-.52-10.59-1.45-16-1.78a69,69,0,0,1-13-1.83c-3.22-.83-7.48-1.42-10.26-3-1.47-.81-1.89-2.33-2.78-3.47C149.07,57.42,149,56.55,148.74,56.31Z"/><path class="cls-2" d="M197.59,39.87c.2-.11.3-.33.51-.46a1.32,1.32,0,0,1,.9-.19c.3,0,.79.18.8.46s-.38.48-.55.58a2.14,2.14,0,0,1-1.28.11C197.65,40.25,197.4,40,197.59,39.87Z"/><path class="cls-2" d="M202,40.58s.29-.17.39-.2a1.57,1.57,0,0,1,.91.07c.19.07.51.19.6.35s0,.14-.15.21a2.07,2.07,0,0,1-1,0c-.21,0-.64,0-.78-.17S201.92,40.57,202,40.58Z"/><path class="cls-2" d="M200.75,46c-.12-.07.06-.28.15-.35a1.56,1.56,0,0,1,.81-.34,1.94,1.94,0,0,1,.93,0c.28.09.26.21.22.43a.59.59,0,0,1-.09.32c-.15.16-.56.13-.78.18-.45.1-.69.21-1.11,0C200.77,46.17,200.61,46,200.75,46Z"/><path class="cls-2" d="M209.3,45.14a3.14,3.14,0,0,1,2.55-.07,2.55,2.55,0,0,0-.38.29,1.65,1.65,0,0,1-1,.26,1.7,1.7,0,0,1-1.19-.42C209.3,45.11,209.41,45.07,209.3,45.14Z"/><path class="cls-2" d="M214.9,43.38c.27-.58,2.47-.64,2.19,0C216.88,44,215,43.83,214.9,43.38Z"/><path class="cls-2" d="M219.58,48a1.66,1.66,0,0,1,.4-.2,2.45,2.45,0,0,1,1.42,0c.34.1.93.52.71.87-.08.11-.46.15-.6.18a2.62,2.62,0,0,1-1.36-.11c-.22-.07-.67-.29-.71-.5A.26.26,0,0,1,219.58,48Z"/><path class="cls-2" d="M193.56,39.73c-.36-.23,1.23-.78,1.5-.8s1.22.27.95.68-1.6.49-2.1.44C193.61,40,193.23,39.89,193.56,39.73Z"/><path class="cls-2" d="M186.32,42.08a1,1,0,0,0-.13.09c.44-.66,1.56-.59,2.33-.43-.07.23-.1.47-.41.61a2.8,2.8,0,0,1-1.35.1C186.52,42.41,185.84,42.25,186.32,42.08Z"/><path class="cls-3" d="M246.79,99.67l-.43.12a24.67,24.67,0,0,1-10.63.65c-3.1-.42-6.19-1-9.3-1.3-4.47-.5-8.94-.89-13.41-1.5a196,196,0,0,1-26.26-4.93c-2.21-.62-4.47-1.09-6.66-1.78-1.17-.37-4.55-1-3.47-2.63.57-.87,2.67-1.59,3.72-1.73,3.32-.44,7.09,0,10.42.22,7.32.54,14.56,1.81,21.86,2.65,5.11.58,10.24,1.49,15.3,2.45,4,.76,8.16,1.07,12.11,2a21.64,21.64,0,0,1,6,2c1,.58,3.24,2.54,2.17,3.27A5.2,5.2,0,0,1,246.79,99.67Z"/><path class="cls-3" d="M226.15,99.28l-.4.19a24.71,24.71,0,0,1-10.38,2.38c-3.13.09-6.26.07-9.39.23-4.5.24-9,.58-13.47.72a196.87,196.87,0,0,1-26.72-.58c-2.28-.25-4.58-.34-6.85-.67-1.22-.17-4.65-.2-3.86-2,.42-1,2.37-2,3.39-2.32,3.2-1,7-1.19,10.31-1.49,7.31-.66,14.67-.59,22-1,5.14-.26,10.35-.21,15.5-.09,4.06.1,8.22-.27,12.27,0a21.72,21.72,0,0,1,6.23,1c1.06.41,3.61,2,2.68,2.87A5,5,0,0,1,226.15,99.28Z"/><path class="cls-2" d="M142,137.71c-1-.64-.58-1.64.93-2.12a36.89,36.89,0,0,1,7.23-1.18c7.28-.66,14.76-1.46,22.11-2.23,4.53-.48,9.31-.72,13.87-1.08,4.18-.33,8.66-.51,12.89-.73a114.58,114.58,0,0,1,13.23-.16c5.22.36,9.94.55,15,1.3,4.32.65,8.41,1.56,12.73,2.23A80.2,80.2,0,0,1,253.81,137c2.15.72,9.6,2.72,1.39,2.13a120.93,120.93,0,0,0-12.93-.27,61.86,61.86,0,0,0-9.59.78c-2.28.44-4.32.86-6.79,1.11-9.47,1-19.11,1.56-28.61,2.47-5.52.53-10.83,1.59-16.48,1.84-3.88.17-6-1.29-9.15-2.06-5.61-1.36-11.17-2.73-17.32-3.61-1.92-.27-4-.39-5.91-.64-1-.13-4.1-.05-4.59-.46A4.06,4.06,0,0,1,142,137.71Z"/><path class="cls-2" d="M219.87,175.37c2.35.74,3.49-1.44,6-1.54,2.22-.09,4.13.56,6.43.07,2.86-.61,4.28-2.42,6.63-3.74.93-.52,4.84-3.15,6.13-2.67s-.61,2.85,1.31,3.12c1.75.25,3.11-3.55,5.33-3.63,2-.07,2.81,2.25,4.13,3.19a24.41,24.41,0,0,0,4.09,2.6c2.84,1.32.1,1.3.8,3.35,2.07-.15,5.25-3.61,7.05-1.13.64.89-.17,2-.2,2.92-1.3.29-.64,1-.78,1.9-.23,1.51-1.16,3.7-3,4.39-2.91,1.1-9.77-1.63-12,1.21-.37.47.31,1.36-.26,1.74-.42.29-2.42-.47-2.89-.51-1.79-.13-2.25.12-3.26,1.08-1.4,1.33-.05,2.29-1.14,3.63-1.29,1.59-3-.27-4.88,1.27-1.29,1.09-1.52,2.59-3.92,2.7-1.38.06-2.69-1.08-3.76-1.87-2.7-2-4.72-1.95-8.23-1.81-1-2.53-2.24-2.38-5.23-1.87-5.3.91-10-1.25-15.36.64-2.83,1-3.86,1.32-6.92.83-1.53-.24-3.23-.52-4.74-.88-2.6-.6-4.34-1.31-7.06-1.41s-3,0-5.27-1.15c-1.94-.94-1.48-.89-3.94,0a28.24,28.24,0,0,1-6,1.85,8.19,8.19,0,0,1-4.34-.27c-1.89-.67-2.16-1.68-4.42-1.18-2,.44-2.8,1.37-5,1s-5.74-2-6.2-4c-.54-2.35,2.47-3.68,4.47-5,1.24-.79,5.09-2.33,5.4-3.67-2.08-.46-7.94.58-9.08-1.42.37-2.32,4.12-4.26,6.82-4.17,3.21.11,4.45,2.78,7.73,2.15,2.1-.4,3.73-1.69,6-1.63,1.66,0,3.64.72,4.09,2.24.26.89-.77,1.88-.61,2.65.78,3.76,9.69-1.69,11.26-2.63,1.8-1.07,5.32-3.05,7.7-2.36s.94,1.77,2,3.05c2.46,2.89,7.59-.6,10.22.75,1.56.81.3,1.82,2.75,1.41s3.22-2.72,5.09-3.63a8.12,8.12,0,0,1,6.27.65C220.33,174.58,218.84,175.85,219.87,175.37Z"/><path class="cls-2" d="M149.52,311.21a5.25,5.25,0,0,1,.59-3.3,7.17,7.17,0,0,1,3.39-2.9c1.78-.9,3.26-2.26,5.19-3,2.67-1,6.24-1.08,9.14-1.55,3.18-.52,6.43-.87,9.66-1.2,3.66-.38,7.22-1.1,10.9-1.42,4.28-.36,8.64-.31,13-.31,8.1,0,16.12.47,24.2.72a82.4,82.4,0,0,1,21.87,3.32c4.9,1.48,12.08,3.17,13,7.33.59,2.68.59,7.2-2.05,9.34-2,1.64-4.68,1.49-7.46,1.93-3.15.5-5.9,1.72-9,2.32-5.17,1-10.4,2.31-15.74,2.75-5.67.47-11.53.46-17.22.42-11.06-.08-21.76.51-32.54-1.49-2.54-.47-4.85-1.31-7.34-1.86-2-.43-4.09-.64-6.11-1-4.08-.8-8.5-1.83-11.39-4.1-.83-.65-1.84-1.05-2.06-1.87C149.15,314.05,149.61,312.53,149.52,311.21Z"/><path class="cls-2" d="M260.46,309.16a20.88,20.88,0,0,0-3.07.41c-2.91.44-6,.61-9,.81-8.91.59-17.77.64-26.69,1.09-10,.5-20.58,2.23-30.55,1-8.93-1.14-18-1.63-27-2-3.45-.12-7.09,0-10.41-.75a12.23,12.23,0,0,1-2.22-.7,3.53,3.53,0,0,1-.91-.54.71.71,0,0,1-.1-.14h-.58a5.56,5.56,0,0,0-.4,2.88c.09,1.32-.37,2.84,0,4.12.22.82,1.23,1.22,2.06,1.87,2.89,2.27,7.31,3.3,11.39,4.1,2,.4,4.15.61,6.11,1,2.49.55,4.8,1.39,7.34,1.86,10.78,2,21.48,1.41,32.54,1.49,5.69,0,11.55.05,17.22-.42,5.34-.44,10.57-1.75,15.74-2.75,3.12-.6,5.87-1.82,9-2.32,2.78-.44,5.46-.29,7.47-1.93C260.94,316.19,261,311.86,260.46,309.16Z"/><path class="cls-2" d="M150.26,307.93c.09.12.16.28.24.41"/><path class="cls-2" d="M260.46,309.16a1.85,1.85,0,0,1,0-.23"/><path class="cls-2" d="M260.54,309.16h0Z"/><path class="cls-2" d="M150.26,307.93a.5.5,0,0,0-.18-.15.85.85,0,0,0-.16.55c.06-.13.1-.26.18-.4Z"/><path class="cls-2" d="M156.8,270.21c-1.35-1.33-1.64-3.12-2-4.77a3.35,3.35,0,0,1,1.5-3.95c1-.65,2.09-1.41,3.11-2,1.48-.85,3.27-.94,5.14-1.16,4.7-.56,9-2,13.64-2.69,5.75-.87,11.53-.61,17.35-.94,6.81-.39,13.93-.29,20.77-.08,5.94.18,11.88.29,17.81.65,2,.13,4,.47,6,.71a55.62,55.62,0,0,1,8.66,1.33c2.63.76,4.83,1.26,6,3,.4.61,1.13,1.16,1.46,1.77.16.3,0,.57.14.86.22.6.72,1.07.76,1.71a21,21,0,0,1-.25,2.72c-.09,1.51-1.21,2.12-2.53,3.25-1.11,1-2.15.86-3.84,1.27-2.42.58-4.9,1-7.32,1.56a24.37,24.37,0,0,1-4.32.74,39.36,39.36,0,0,0-6.36.44c-1.37.3-2.52.76-4,.95-2.55.33-5,.08-7.46.67-3.72.9-6.93.25-10.74-.08a93.87,93.87,0,0,0-14.81.12,112.69,112.69,0,0,1-12.33,0A91.57,91.57,0,0,1,168.93,275c-.62-.13-1.1-.35-1.67-.51a12.49,12.49,0,0,0-1.94-.17,17.53,17.53,0,0,1-4.27-1,11.72,11.72,0,0,1-4.13-3Z"/><path class="cls-2" d="M256.44,263c-.11-.29,0-.56-.14-.86a5.09,5.09,0,0,0-.83-1,5.44,5.44,0,0,1-.22.5c.1,0,.46.18.32.15-3-.05-6,.45-9,.2-8.31-.68-17-1.13-25.29-.28-3.76.38-7.62.25-11.33.88-2.48.41-4.9,1-7.37,1.49-4.71.87-9.65,0-14.44,0-1.73,0-3.34-.37-5.06-.3-3.26.14-6.17.89-9.47.52a83.11,83.11,0,0,0-9.48-.35c-2.27,0-4.48.14-6.73.29a9.08,9.08,0,0,1-2.08,0,2.28,2.28,0,0,1-.64-.06,6,6,0,0,0,.12,1.24c.33,1.65.63,3.44,2,4.77l.12.11a11.72,11.72,0,0,0,4.13,3,17.53,17.53,0,0,0,4.27,1,12.49,12.49,0,0,1,1.94.17c.57.16,1.05.38,1.67.51a91.57,91.57,0,0,0,14.35,1.33,112.69,112.69,0,0,0,12.33,0,93.87,93.87,0,0,1,14.81-.12c3.81.33,7,1,10.74.08,2.45-.59,4.91-.34,7.46-.67,1.44-.19,2.59-.65,4-.95a39.36,39.36,0,0,1,6.36-.44,24.37,24.37,0,0,0,4.32-.74c2.42-.58,4.9-1,7.32-1.56,1.69-.42,2.73-.31,3.84-1.27,1.32-1.13,2.44-1.74,2.53-3.25a21,21,0,0,0,.25-2.72C257.16,264.05,256.66,263.58,256.44,263Z"/><path class="cls-2" d="M160.64,227.38c-.18-.1-.26.12-.34-.12,2-3.06,5.7-2.43,9.48-2.12,2.68.21,5.23-1,7.92-.77,1.67.12,5.7,1.93,5,3.81-.77,2.21-7.14.06-9,.13-2.67.12-5,2.08-7.74,1.7-1.59-.23-1.77-1.19-3-1.68-1.09-.42-2.33,0-3.45-.05A1,1,0,0,1,160.64,227.38Z"/><path class="cls-2" d="M196.16,225.43a2.34,2.34,0,0,1,2.53-2c1.67.22,1.9,1.61,3.93,1.57-.47,1.74-2.48,3.63-4.34,1.76-1-1-.23-1.49-2.41-.88C195.62,225.46,195.8,225,196.16,225.43Z"/><path class="cls-2" d="M213.84,225.69c.41-1.45,3.28-2.92,5-2.88,2.47.06,5.22,2.09,2.5,3.67-1.38.8-2.81.32-4.35.48-1,.1-3.09.65-2.75-.73l-.58,0C213.41,225.69,213.63,225.29,213.84,225.69Z"/><path class="cls-2" d="M238.32,223.47c-.54-.08-2.48.86-2.35,1.8.22,1.58,2.2.15,3.14.14,1.58,0,2.76,1.14,4.45,1.22,2,.1,5.14.29,6-1.6,1.25-2.84-4.92-1.73-6.92-1.83a11.27,11.27,0,0,0-2.72,0C239.28,223.33,238.57,224.2,238.32,223.47Z"/><line class="cls-4" x1="383.99" y1="50.42" x2="276.06" y2="50.42"/><polygon points="384.87 50.42 383.63 49.91 383.92 50.42 383.63 50.92 384.87 50.42"/><text class="cls-5" transform="translate(401.91 53.96)">Key ingredient</text><line class="cls-4" x1="383.99" y1="95.75" x2="276.06" y2="95.75"/><polygon points="384.87 95.75 383.63 95.24 383.92 95.75 383.63 96.25 384.87 95.75"/><text class="cls-5" transform="translate(401.91 99.29)">Supporting ingredient <tspan class="cls-6" x="104.65" y="0">(wet, soft)</tspan></text><line class="cls-4" x1="383.99" y1="134.52" x2="276.06" y2="134.52"/><polygon points="384.87 134.52 383.63 134.02 383.92 134.52 383.63 135.03 384.87 134.52"/><text class="cls-5" transform="translate(401.91 138.06)">Supporting ingredient <tspan class="cls-6" x="104.65" y="0">(creamy, salty)</tspan></text><line class="cls-4" x1="383.99" y1="180.06" x2="276.06" y2="180.06"/><polygon points="384.87 180.06 383.63 179.56 383.92 180.06 383.63 180.57 384.87 180.06"/><text class="cls-5" transform="translate(401.91 183.6)">Supporting ingredient <tspan class="cls-6" x="104.65" y="0">(wet, crunchy)</tspan></text><line class="cls-4" x1="383.99" y1="224.55" x2="276.06" y2="224.55"/><polygon points="384.87 224.55 383.63 224.05 383.92 224.55 383.63 225.06 384.87 224.55"/><text class="cls-5" transform="translate(401.91 228.09)">Sauce <tspan class="cls-6" x="30.16" y="0">(flavor)</tspan></text><line class="cls-4" x1="383.99" y1="262.57" x2="276.06" y2="262.57"/><polygon points="384.87 262.57 383.63 262.06 383.92 262.57 383.63 263.07 384.87 262.57"/><text class="cls-5" transform="translate(401.91 266.11)">Key ingredient</text><line class="cls-4" x1="383.99" y1="311.99" x2="276.06" y2="311.99"/><polygon points="384.87 311.99 383.63 311.49 383.92 311.99 383.63 312.5 384.87 311.99"/><text class="cls-5" transform="translate(401.91 315.53)">Key ingredient</text><text class="cls-5" transform="translate(97.34 53.96)">Bun</text><text class="cls-5" transform="translate(78.66 99.75)">Tomatoes</text><text class="cls-5" transform="translate(82.05 140.34)">Cheese</text><text class="cls-5" transform="translate(86.95 183.6)">Lettuce</text><text class="cls-5" transform="translate(98.41 227.91)">Sauce</text><text class="cls-5" transform="translate(94.95 268.7)">Patty</text><text class="cls-5" transform="translate(97.34 313.24)">Bun</text><text class="cls-7" transform="translate(23.12 362.76)"><tspan xml:space="preserve">INDEPENDENT CHEF   at</tspan><tspan class="cls-8" x="108.9" y="0">	</tspan><tspan class="cls-9" x="144" y="0" xml:space="preserve">			</tspan><tspan x="252" y="0">www.independentchef.info</tspan><tspan class="cls-10" x="372.23" y="0">	</tspan><tspan class="cls-9" x="396" y="0" xml:space="preserve">			</tspan><tspan x="504" y="0" xml:space="preserve">    THE BURGER</tspan></text></svg>