<svg id="Layer_1" data-name="Layer 1" xmlns="http://www.w3.org/2000/svg" viewBox="0 0 641.89 375.78"><defs><style>.cls-1{fill:#fff;}.cls-2,.cls-7{fill:#d59d58;}.cls-2{stroke:#b27f47;}.cls-10,.cls-2,.cls-3,.cls-4,.cls-5,.cls-6,.cls-7,.cls-8,.cls-9{stroke-miterlimit:10;}.cls-2,.cls-5,.cls-6,.cls-7,.cls-8,.cls-9{stroke-width:0.5px;}.cls-3{fill:#fce5ca;stroke:#d8b695;stroke-width:0.1px;}.cls-4{fill:#e8563d;stroke:#d63722;stroke-width:0.54px;}.cls-5{fill:#f4d242;stroke:#dbbe45;}.cls-6{fill:#c7e259;stroke:#c6c945;}.cls-7{stroke:#c48e53;}.cls-8{fill:#5f3024;stroke:#562520;}.cls-9{fill:#f49460;stroke:#ce806e;}.cls-10{fill:none;stroke:#000;stroke-width:0.2px;}.cls-11{opacity:0.75;font-family:OpenSans-Regular, Open Sans;}.cls-11,.cls-13{font-size:10px;}.cls-12{font-family:OpenSans-Italic, Open Sans;font-style:italic;}.cls-13{opacity:0.3;font-family:OpenSans-Light, Open Sans;font-weight:300;}.cls-14{letter-spacing:3.25em;}.cls-15{letter-spacing:3.34em;}.cls-16{letter-spacing:2.12em;}</style></defs><title>cookbook-graphics</title><rect class="cls-1" width="641.89" height="366.52"/><path class="cls-2" d="M120.86,56.31c-.08-.07-.07-.13-.24-.12-.19-1.56-1.51-2.94-1.21-4.65a10.79,10.79,0,0,1,2-4.17c2.09-3,5.46-4.38,9-6.21a23.53,23.53,0,0,1,5.36-2.41c2.07-.54,4.1-1,6.18-1.55,8.28-2,16.59-4.7,25.45-4.68,5.06,0,10,.57,15,.61a53.77,53.77,0,0,1,9.59,1,40.51,40.51,0,0,0,4.22.52,7.24,7.24,0,0,1,2.42.88,13.23,13.23,0,0,0,3.42.69c1.64.22,3.32.56,4.91.94,1.43.34,2.62,1.13,4.06,1.47s2.72.65,4,1.09,2.66,1.31,4,1.88c3.1,1.3,8.39,4,8.5,7.14.05,1.38.89,2.83.73,4.17-.1.88-.65,1.7-.73,2.62a4.4,4.4,0,0,1-.95,2.36,12.83,12.83,0,0,1-3.37,3,16.12,16.12,0,0,1-6.4,2.34c-4,.85-7.93,1.62-12,2.43a78.39,78.39,0,0,1-13.28,1.51c-5.52.15-10.87,1.14-16.45,1.14-3.87,0-7.71,0-11.55-.33-5.36-.52-10.59-1.45-16-1.78a69.27,69.27,0,0,1-13-1.83c-3.21-.83-7.47-1.42-10.25-3-1.47-.81-1.9-2.33-2.78-3.47C121.18,57.42,121.09,56.55,120.86,56.31Z"/><path class="cls-3" d="M169.71,39.87c.2-.11.3-.33.51-.46a1.32,1.32,0,0,1,.9-.19c.3,0,.79.18.8.46s-.38.48-.55.58a2.15,2.15,0,0,1-1.28.11C169.77,40.25,169.52,40,169.71,39.87Z"/><path class="cls-3" d="M174.15,40.58s.29-.17.39-.2a1.57,1.57,0,0,1,.91.07c.19.07.51.19.59.35s0,.14-.14.21a2.07,2.07,0,0,1-1,0c-.21,0-.64,0-.79-.17S174,40.57,174.15,40.58Z"/><path class="cls-3" d="M172.86,46c-.11-.07.07-.28.16-.35a1.56,1.56,0,0,1,.81-.34,1.94,1.94,0,0,1,.93,0c.28.09.26.21.22.43s0,.25-.09.32-.56.13-.78.18c-.45.1-.69.21-1.11,0C172.89,46.17,172.72,46,172.86,46Z"/><path class="cls-3" d="M181.42,45.14a3.14,3.14,0,0,1,2.55-.07,2.12,2.12,0,0,0-.38.29,1.65,1.65,0,0,1-1,.26,1.68,1.68,0,0,1-1.19-.42C181.42,45.11,181.53,45.07,181.42,45.14Z"/><path class="cls-3" d="M187,43.38c.27-.58,2.47-.64,2.19,0C189,44,187.09,43.83,187,43.38Z"/><path class="cls-3" d="M191.7,48a1.5,1.5,0,0,1,.4-.2,2.45,2.45,0,0,1,1.42,0c.33.1.93.52.71.87-.08.11-.46.15-.6.18a2.61,2.61,0,0,1-1.36-.11c-.22-.07-.67-.29-.71-.5A.26.26,0,0,1,191.7,48Z"/><path class="cls-3" d="M165.68,39.73c-.36-.23,1.23-.78,1.49-.8s1.23.27,1,.68-1.6.49-2.1.44C165.73,40,165.35,39.89,165.68,39.73Z"/><path class="cls-3" d="M158.44,42.08a1,1,0,0,0-.13.09c.44-.66,1.56-.59,2.33-.43-.07.23-.1.47-.41.61a2.8,2.8,0,0,1-1.35.1C158.63,42.41,158,42.25,158.44,42.08Z"/><path class="cls-4" d="M219.67,100l-.46.14c-3.19,1.12-7.65,1.2-11.41.69-3.32-.45-6.64-1-10-1.4-4.81-.54-9.6-.95-14.39-1.6a209.94,209.94,0,0,1-28.19-5.3c-2.37-.66-4.79-1.16-7.13-1.9-1.26-.4-4.89-1-3.73-2.82.61-.94,2.86-1.71,4-1.86,3.56-.48,7.6,0,11.18.23,7.86.59,15.63,2,23.45,2.85,5.49.62,11,1.6,16.42,2.62,4.29.82,8.76,1.16,13,2.15A23.21,23.21,0,0,1,218.84,96c1,.62,3.48,2.72,2.34,3.51A5.35,5.35,0,0,1,219.67,100Z"/><path class="cls-4" d="M197.53,99.61l-.43.21c-3,1.63-7.36,2.44-11.15,2.55-3.35.1-6.71.08-10.06.25-4.83.25-9.63.63-14.46.77a210.94,210.94,0,0,1-28.67-.62c-2.45-.27-4.92-.37-7.36-.72-1.3-.18-5-.22-4.13-2.17.45-1,2.54-2.15,3.63-2.48,3.44-1.06,7.5-1.28,11.07-1.6,7.85-.71,15.73-.63,23.6-1,5.51-.27,11.11-.21,16.63-.09,4.36.11,8.82-.29,13.17,0a23.07,23.07,0,0,1,6.68,1.1c1.14.43,3.88,2.11,2.88,3.07A5,5,0,0,1,197.53,99.61Z"/><path class="cls-5" d="M114.11,137.71c-1-.64-.59-1.64.93-2.12a36.91,36.91,0,0,1,7.22-1.18c7.29-.66,14.76-1.46,22.12-2.23,4.52-.48,9.31-.72,13.87-1.08,4.18-.33,8.66-.51,12.89-.73a114.58,114.58,0,0,1,13.23-.16c5.22.36,9.94.55,15,1.3,4.32.65,8.41,1.56,12.73,2.23A80.2,80.2,0,0,1,225.93,137c2.15.72,9.6,2.72,1.39,2.13a121.12,121.12,0,0,0-12.94-.27,61.83,61.83,0,0,0-9.58.78c-2.28.44-4.32.86-6.79,1.11-9.47,1-19.11,1.56-28.61,2.47-5.52.53-10.83,1.59-16.48,1.84-3.88.17-6-1.29-9.15-2.06-5.61-1.36-11.17-2.73-17.32-3.61-1.93-.27-4-.39-5.91-.64-1-.13-4.1-.05-4.59-.46A4.06,4.06,0,0,1,114.11,137.71Z"/><path class="cls-6" d="M192,175.37c2.35.74,3.49-1.44,6-1.54,2.23-.09,4.14.56,6.44.07,2.86-.61,4.28-2.42,6.63-3.74.93-.52,4.84-3.15,6.13-2.67,1.44.53-.62,2.85,1.31,3.12,1.75.25,3.11-3.55,5.33-3.63,2-.07,2.8,2.25,4.13,3.19a24.41,24.41,0,0,0,4.09,2.6c2.84,1.32.09,1.3.8,3.35,2.07-.15,5.25-3.61,7-1.13.64.89-.17,2-.2,2.92-1.3.29-.64,1-.78,1.9-.23,1.51-1.17,3.7-3,4.39-2.92,1.1-9.77-1.63-12,1.21-.37.47.31,1.36-.26,1.74-.42.29-2.42-.47-2.89-.51-1.8-.13-2.25.12-3.26,1.08-1.41,1.33-.06,2.29-1.14,3.63-1.29,1.59-3-.27-4.88,1.27-1.29,1.09-1.53,2.59-3.92,2.7-1.38.06-2.69-1.08-3.76-1.87-2.71-2-4.72-1.95-8.23-1.81-1-2.53-2.24-2.38-5.23-1.87-5.3.91-10-1.25-15.36.64-2.84,1-3.86,1.32-6.92.83-1.53-.24-3.23-.52-4.75-.88-2.59-.6-4.33-1.31-7-1.41s-3,0-5.27-1.15c-1.94-.94-1.48-.89-3.94,0a28.24,28.24,0,0,1-6,1.85,8.19,8.19,0,0,1-4.34-.27c-1.89-.67-2.16-1.68-4.43-1.18-2,.44-2.79,1.37-5,1s-5.74-2-6.2-4c-.54-2.35,2.47-3.68,4.47-5,1.23-.79,5.09-2.33,5.4-3.67-2.09-.46-7.94.58-9.08-1.42.37-2.32,4.12-4.26,6.81-4.17,3.21.11,4.46,2.78,7.74,2.15,2.1-.4,3.72-1.69,6-1.63,1.66,0,3.64.72,4.09,2.24.26.89-.77,1.88-.61,2.65.78,3.76,9.68-1.69,11.26-2.63,1.79-1.07,5.32-3.05,7.7-2.36s.93,1.77,2,3.05c2.46,2.89,7.58-.6,10.22.75,1.56.81.3,1.82,2.75,1.41s3.22-2.72,5.09-3.63a8.12,8.12,0,0,1,6.27.65C192.45,174.58,191,175.85,192,175.37Z"/><path class="cls-7" d="M121.63,311.21a5.32,5.32,0,0,1,.6-3.3,7.17,7.17,0,0,1,3.39-2.9c1.78-.9,3.25-2.26,5.19-3,2.66-1,6.24-1.08,9.14-1.55,3.18-.52,6.43-.87,9.66-1.2,3.66-.38,7.22-1.1,10.9-1.42,4.28-.36,8.64-.31,13-.31,8.11,0,16.13.47,24.21.72a82.4,82.4,0,0,1,21.87,3.32c4.9,1.48,12.08,3.17,13,7.33.59,2.68.59,7.2-2,9.34-2,1.64-4.68,1.49-7.46,1.93-3.15.5-5.9,1.72-9,2.32-5.18,1-10.4,2.31-15.75,2.75-5.66.47-11.52.46-17.21.42-11.06-.08-21.76.51-32.54-1.49-2.54-.47-4.85-1.31-7.34-1.86-2-.43-4.09-.64-6.11-1-4.08-.8-8.5-1.83-11.39-4.1-.83-.65-1.84-1.05-2.06-1.87C121.27,314.05,121.73,312.53,121.63,311.21Z"/><path class="cls-7" d="M232.58,309.16a21.17,21.17,0,0,0-3.08.41c-2.9.44-6,.61-9,.81-8.9.59-17.76.64-26.68,1.09-10,.5-20.58,2.23-30.55,1-8.94-1.14-18-1.63-27-2-3.45-.12-7.09,0-10.41-.75a12,12,0,0,1-2.22-.7,3.37,3.37,0,0,1-.91-.54,1.71,1.71,0,0,1-.11-.14H122a5.77,5.77,0,0,0-.4,2.88c.1,1.32-.36,2.84,0,4.12.22.82,1.23,1.22,2.06,1.87,2.89,2.27,7.31,3.3,11.39,4.1,2,.4,4.15.61,6.11,1,2.49.55,4.8,1.39,7.34,1.86,10.78,2,21.48,1.41,32.54,1.49,5.69,0,11.55.05,17.21-.42,5.35-.44,10.57-1.75,15.75-2.75,3.12-.6,5.87-1.82,9-2.32,2.79-.44,5.46-.29,7.47-1.93C233.05,316.19,233.12,311.86,232.58,309.16Z"/><path class="cls-7" d="M122.37,307.93a3.38,3.38,0,0,1,.24.41"/><path class="cls-7" d="M232.58,309.16a1.85,1.85,0,0,1,0-.23"/><path class="cls-7" d="M232.66,309.16h0Z"/><path class="cls-7" d="M122.37,307.93a.43.43,0,0,0-.18-.15,1,1,0,0,0-.16.55c.07-.13.11-.26.19-.4Z"/><path class="cls-8" d="M128.92,270.21c-1.35-1.33-1.64-3.12-2-4.77a3.35,3.35,0,0,1,1.5-3.95c1-.65,2.09-1.41,3.11-2,1.48-.85,3.26-.94,5.14-1.16,4.7-.56,9-2,13.64-2.69,5.75-.87,11.53-.61,17.35-.94,6.81-.39,13.93-.29,20.77-.08,5.94.18,11.88.29,17.81.65,2,.13,4,.47,6,.71a55.81,55.81,0,0,1,8.66,1.33c2.63.76,4.83,1.26,6,3,.4.61,1.13,1.16,1.46,1.77.16.3,0,.57.14.86.22.6.71,1.07.76,1.71a21,21,0,0,1-.25,2.72c-.09,1.51-1.21,2.12-2.53,3.25-1.11,1-2.15.86-3.84,1.27-2.42.58-4.9,1-7.33,1.56a24.1,24.1,0,0,1-4.31.74,39.36,39.36,0,0,0-6.36.44c-1.37.3-2.52.76-4,.95-2.55.33-5,.08-7.46.67-3.72.9-6.93.25-10.74-.08a93.86,93.86,0,0,0-14.81.12,112.87,112.87,0,0,1-12.34,0A91.56,91.56,0,0,1,141.05,275c-.62-.13-1.1-.35-1.68-.51a12.26,12.26,0,0,0-1.93-.17,17.53,17.53,0,0,1-4.27-1,11.72,11.72,0,0,1-4.13-3Z"/><path class="cls-8" d="M228.56,263c-.11-.29,0-.56-.14-.86a5.16,5.16,0,0,0-.84-1,3.55,3.55,0,0,1-.21.5c.1,0,.46.18.32.15-3-.05-6,.45-9,.2-8.31-.68-17-1.13-25.29-.28-3.76.38-7.62.25-11.33.88-2.48.41-4.9,1-7.37,1.49-4.71.87-9.65,0-14.44,0-1.73,0-3.34-.37-5.06-.3-3.26.14-6.17.89-9.47.52a83.29,83.29,0,0,0-9.49-.35c-2.26,0-4.47.14-6.73.29a9.08,9.08,0,0,1-2.08,0,2.25,2.25,0,0,1-.63-.06,6,6,0,0,0,.12,1.24c.33,1.65.62,3.44,2,4.77l.12.11a11.72,11.72,0,0,0,4.13,3,17.53,17.53,0,0,0,4.27,1,12.26,12.26,0,0,1,1.93.17c.58.16,1.06.38,1.68.51a91.56,91.56,0,0,0,14.34,1.33,112.87,112.87,0,0,0,12.34,0,93.86,93.86,0,0,1,14.81-.12c3.81.33,7,1,10.74.08,2.45-.59,4.91-.34,7.46-.67,1.44-.19,2.59-.65,4-.95a39.36,39.36,0,0,1,6.36-.44,24.1,24.1,0,0,0,4.31-.74c2.43-.58,4.91-1,7.33-1.56,1.69-.42,2.73-.31,3.84-1.27,1.32-1.13,2.44-1.74,2.53-3.25a21,21,0,0,0,.25-2.72C229.27,264.05,228.78,263.58,228.56,263Z"/><path class="cls-9" d="M132.75,227.38c-.18-.1-.26.12-.33-.12,2-3.06,5.7-2.43,9.48-2.12,2.68.21,5.23-1,7.92-.77,1.66.12,5.7,1.93,5,3.81-.78,2.21-7.14.06-9,.13-2.67.12-5,2.08-7.74,1.7-1.6-.23-1.77-1.19-3-1.68-1.09-.42-2.33,0-3.46-.05A1,1,0,0,1,132.75,227.38Z"/><path class="cls-9" d="M168.28,225.43a2.34,2.34,0,0,1,2.53-2c1.67.22,1.89,1.61,3.93,1.57-.47,1.74-2.48,3.63-4.34,1.76-1-1-.23-1.49-2.41-.88C167.74,225.46,167.92,225,168.28,225.43Z"/><path class="cls-9" d="M186,225.69c.41-1.45,3.28-2.92,5-2.88,2.46.06,5.22,2.09,2.5,3.67-1.38.8-2.81.32-4.35.48-1,.1-3.09.65-2.75-.73l-.58,0C185.52,225.69,185.75,225.29,186,225.69Z"/><path class="cls-9" d="M210.44,223.47c-.54-.08-2.48.86-2.35,1.8.21,1.58,2.2.15,3.14.14,1.58,0,2.76,1.14,4.45,1.22,2,.1,5.14.29,6-1.6,1.25-2.84-4.92-1.73-6.92-1.83a11.27,11.27,0,0,0-2.72,0C211.4,223.33,210.69,224.2,210.44,223.47Z"/><line class="cls-10" x1="355.58" y1="50.42" x2="245.78" y2="50.42"/><polygon points="356.99 50.42 355 49.6 355.47 50.42 355 51.23 356.99 50.42"/><text class="cls-11" transform="translate(374.03 53.96)">Key ingredient</text><line class="cls-10" x1="355.58" y1="95.75" x2="242.6" y2="95.75"/><polygon points="356.99 95.75 355 94.94 355.47 95.75 355 96.56 356.99 95.75"/><text class="cls-11" transform="translate(374.03 99.29)">Supporting ingredient <tspan class="cls-12" x="104.65" y="0">(wet, soft)</tspan></text><line class="cls-10" x1="355.58" y1="134.52" x2="250.89" y2="134.52"/><polygon points="356.99 134.52 355 133.71 355.47 134.52 355 135.34 356.99 134.52"/><text class="cls-11" transform="translate(374.03 138.06)">Supporting ingredient <tspan class="cls-12" x="104.65" y="0">(creamy, salty)</tspan></text><line class="cls-10" x1="355.58" y1="180.06" x2="258.02" y2="180.06"/><polygon points="356.99 180.06 355 179.25 355.47 180.06 355 180.88 356.99 180.06"/><text class="cls-11" transform="translate(374.03 183.6)">Supporting ingredient <tspan class="cls-12" x="104.65" y="0">(wet, crunchy)</tspan></text><line class="cls-10" x1="355.58" y1="224.55" x2="245.43" y2="224.55"/><polygon points="356.99 224.55 355 223.74 355.47 224.55 355 225.37 356.99 224.55"/><text class="cls-11" transform="translate(374.03 228.09)">Sauce <tspan class="cls-12" x="30.16" y="0">(flavor)</tspan></text><line class="cls-10" x1="355.58" y1="262.57" x2="250.64" y2="262.57"/><polygon points="356.99 262.57 355 261.75 355.47 262.57 355 263.38 356.99 262.57"/><text class="cls-11" transform="translate(374.03 266.11)">Key ingredient</text><line class="cls-10" x1="355.58" y1="311.99" x2="252.36" y2="311.99"/><polygon points="356.99 311.99 355 311.18 355.47 311.99 355 312.8 356.99 311.99"/><text class="cls-11" transform="translate(374.03 315.53)">Key ingredient</text><text class="cls-13" transform="translate(23.12 362.76)"><tspan xml:space="preserve">INDEPENDENT CHEF   at</tspan><tspan class="cls-14" x="108.9" y="0">	</tspan><tspan class="cls-15" x="144" y="0" xml:space="preserve">			</tspan><tspan x="252" y="0">www.independentchef.info</tspan><tspan class="cls-16" x="372.23" y="0">	</tspan><tspan class="cls-15" x="396" y="0" xml:space="preserve">			</tspan><tspan x="504" y="0" xml:space="preserve">    THE BURGER</tspan></text></svg>