<svg id="Layer_1" data-name="Layer 1" xmlns="http://www.w3.org/2000/svg" viewBox="0 0 756.4 604.64"><defs><style>.cls-1{fill:#e89669;}.cls-2{fill:#fce5ca;}.cls-3{fill:#f7836f;}.cls-4{fill:#fce895;}.cls-5{fill:#e5ef97;}.cls-6{fill:#f9ddbb;}.cls-7{fill:#d5a86d;}.cls-8{fill:#92482c;}.cls-9{fill:#88462c;}.cls-10{fill:#f4a48e;}.cls-11{font-size:24px;font-family:BodoniSvtyTwoITCTT-BookIta, "Bodoni 72";font-style:italic;}.cls-12{font-size:18px;}</style></defs><title>cookbook-graphics</title><path class="cls-1" d="M9,69.42c-.18-.2-.15-.35-.6-.32-.46-4.17-3.79-7.87-3-12.46.64-3.88,2.69-7.75,5-11.16,5.24-7.93,13.72-11.71,22.56-16.61,4.61-2.57,8-4.92,13.47-6.45,5.18-1.46,10.3-2.82,15.51-4.15C82.67,13,103.54,5.68,125.81,5.76c12.7,0,25.08,1.52,37.75,1.62A126.8,126.8,0,0,1,187.65,10a96.31,96.31,0,0,0,10.61,1.39c2.43.21,4,1.4,6.07,2.36,2.62,1.19,5.65,1.42,8.58,1.84a115.55,115.55,0,0,1,12.33,2.51c3.61.92,6.6,3,10.21,4,3.38.87,6.82,1.74,10.1,2.91,3.63,1.31,6.67,3.49,10.13,5,7.8,3.46,21.1,10.83,21.36,19.1.12,3.69,2.24,7.58,1.84,11.16-.27,2.37-1.62,4.55-1.84,7a12,12,0,0,1-2.38,6.31c-2.1,3.2-5.18,5.7-8.47,8.12-5,3.69-9.73,4.8-16.07,6.24-10.07,2.29-19.91,4.36-30,6.53a187.24,187.24,0,0,1-33.37,4c-13.85.42-27.32,3-41.32,3-9.71,0-19.37.14-29-.87-13.45-1.4-26.58-3.87-40.15-4.77C65.33,95.16,54,93.87,43.62,91c-8.07-2.24-18.78-3.82-25.76-7.92-3.68-2.16-4.76-6.23-7-9.28C9.84,72.38,9.61,70.06,9,69.42Z"/><path class="cls-2" d="M131.74,25.42c.49-.31.75-.9,1.26-1.24a3.14,3.14,0,0,1,2.26-.5c.76.1,2,.47,2,1.23,0,.37-1,1.27-1.37,1.56a5.31,5.31,0,0,1-3.23.29C131.88,26.43,131.25,25.76,131.74,25.42Z"/><path class="cls-2" d="M142.87,27.33s.74-.46,1-.54a3.41,3.41,0,0,1,2.29.19c.47.19,1.27.51,1.49.94s.09.36-.35.55a5.11,5.11,0,0,1-2.43.07c-.52-.06-1.61-.06-2-.46C142.7,27.87,142.6,27.29,142.87,27.33Z"/><path class="cls-2" d="M139.65,41.74c-.29-.18.17-.74.38-1a4,4,0,0,1,2.05-.89,4.42,4.42,0,0,1,2.34.12c.69.26.66.57.55,1.16a1.85,1.85,0,0,1-.24.86c-.37.41-1.4.35-1.94.47-1.14.27-1.74.56-2.8-.08C139.72,42.27,139.3,41.77,139.65,41.74Z"/><path class="cls-2" d="M161.14,39.51a7.52,7.52,0,0,1,6.41-.17,6.88,6.88,0,0,0-1,.76,4,4,0,0,1-2.63.72,4.31,4.31,0,0,1-3-1.13C161.15,39.44,161.41,39.34,161.14,39.51Z"/><path class="cls-2" d="M175.21,34.8c.67-1.54,6.2-1.71,5.5.14C180.18,36.34,175.39,36,175.21,34.8Z"/><path class="cls-2" d="M187,47.27a4,4,0,0,1,1-.54,5.63,5.63,0,0,1,3.56.06c.85.25,2.35,1.38,1.79,2.3-.19.31-1.16.42-1.51.49a6.42,6.42,0,0,1-3.42-.28c-.55-.19-1.68-.79-1.78-1.34C186.55,47.7,186.72,47.47,187,47.27Z"/><path class="cls-2" d="M121.6,25.05c-.89-.63,3.1-2.09,3.76-2.16,1-.1,3.07.73,2.39,1.82s-4,1.32-5.27,1.19C121.72,25.83,120.77,25.48,121.6,25.05Z"/><path class="cls-2" d="M103.41,31.33a2.43,2.43,0,0,0-.32.24c1.1-1.77,3.92-1.57,5.85-1.14-.16.62-.24,1.24-1,1.61a6.39,6.39,0,0,1-3.39.29C103.91,32.22,102.21,31.79,103.41,31.33Z"/><path class="cls-3" d="M258.94,150.3c-.48.26-.93.52-1.33.79C248.46,157.26,235,160,223.5,160c-10.2,0-20.43-.49-30.63-.18-14.7.44-29.31,1.38-44,1.38-29,0-58.38-.64-87.12-5.87-7.42-1.35-14.92-2-22.29-3.73-4-.91-15.14-1.48-12.38-9.22,1.44-4,7.92-8.32,11.26-9.54,10.54-3.82,22.9-4.25,33.79-5.11C96,125.82,120,127.06,144,126.4c16.78-.46,33.78.44,50.56,1.6,13.26.92,26.86-.14,40,1.54,6.79.86,14,1.73,20.23,5.18,3.42,1.88,11.59,8.94,8.47,12.69C262.29,148.59,260.5,149.44,258.94,150.3Z"/><path class="cls-4" d="M1.33,209.35c-2.3-1.52-1.38-3.9,2.23-5,4.89-1.56,11.54-2.31,17.19-2.82,17.34-1.56,35.14-3.45,52.65-5.3,10.77-1.14,22.17-1.72,33-2.57,10-.79,20.62-1.21,30.7-1.73s21.33-1.08,31.49-.38c12.44.84,23.66,1.31,35.65,3.1,10.28,1.53,20,3.71,30.31,5.28a194.19,194.19,0,0,1,33,7.68c5.11,1.72,22.87,6.47,3.32,5.06a287,287,0,0,0-30.8-.62c-7.83.25-15.6.43-22.83,1.84-5.42,1.06-10.28,2-16.16,2.64-22.55,2.3-45.48,3.73-68.11,5.89-13.14,1.25-25.78,3.79-39.24,4.37-9.24.4-14.23-3.07-21.77-4.89-13.35-3.25-26.59-6.51-41.23-8.59-4.59-.65-9.45-.95-14.08-1.54-2.33-.3-9.75-.12-10.92-1.09A9.67,9.67,0,0,1,1.33,209.35Z"/><path class="cls-5" d="M178.92,279.32c5.6,1.76,8.3-3.45,14.24-3.68,5.29-.2,9.86,1.34,15.33.18,6.8-1.46,10.18-5.76,15.78-8.91,2.2-1.24,11.53-7.49,14.59-6.36,3.43,1.27-1.46,6.78,3.12,7.43,4.16.6,7.41-8.44,12.68-8.63,4.83-.18,6.69,5.33,9.84,7.58,3.56,2.52,6,4.45,9.73,6.19,6.77,3.14.23,3.09,1.91,8,4.92-.36,12.49-8.61,16.79-2.69,1.53,2.09-.41,4.67-.47,6.93-3.11.7-1.53,2.37-1.86,4.54-.55,3.59-2.78,8.79-7.13,10.44-6.94,2.61-23.26-3.88-28.61,2.89-.88,1.12.74,3.23-.63,4.15-1,.67-5.76-1.14-6.86-1.23-4.28-.32-5.36.3-7.77,2.57-3.35,3.17-.13,5.46-2.72,8.64-3.07,3.78-7.22-.64-11.61,3-3.08,2.58-3.63,6.14-9.34,6.41-3.29.15-6.41-2.57-9-4.45-6.44-4.76-11.24-4.64-19.59-4.3-2.28-6-5.33-5.66-12.46-4.45-12.6,2.15-23.87-3-36.55,1.51-6.75,2.4-9.2,3.16-16.47,2-3.66-.59-7.69-1.25-11.31-2.09-6.18-1.44-10.32-3.14-16.78-3.37-6.31-.22-7.14-.12-12.56-2.74-4.62-2.23-3.53-2.11-9.39,0-4.65,1.71-9.13,3.71-14.22,4.41-3.88.54-6.65.66-10.34-.64-4.5-1.6-5.14-4-10.53-2.82-4.78,1.05-6.66,3.26-12,2.42S11.11,307.42,10,302.75C8.71,297.18,15.89,294,20.65,291c2.94-1.89,12.11-5.53,12.85-8.74-5-1.1-18.89,1.38-21.6-3.37.87-5.53,9.79-10.15,16.21-9.93,7.65.26,10.62,6.61,18.42,5.12,5-1,8.87-4,14.23-3.88,4,.11,8.67,1.72,9.74,5.33.62,2.11-1.83,4.47-1.45,6.31,1.86,8.95,23-4,26.81-6.27,4.27-2.55,12.65-7.26,18.33-5.62,5.34,1.53,2.22,4.22,4.81,7.27,5.86,6.89,18.05-1.43,24.32,1.8,3.72,1.91.72,4.32,6.55,3.34,5.56-.93,7.66-6.46,12.12-8.65,3.34-1.63,11.52-.87,14.92,1.55C180,277.43,176.45,280.46,178.92,279.32Z"/><path class="cls-2" d="M14.65,554.06c-.2-2.79-.1-5.26,1.41-7.84,1.89-3.22,4.14-4.91,8.08-6.91,4.23-2.14,7.74-5.39,12.34-7.07,6.35-2.32,14.87-2.57,21.77-3.69,7.58-1.23,15.3-2.07,23-2.86,8.72-.9,17.18-2.61,25.94-3.37,10.19-.87,20.58-.74,30.85-.74,19.28,0,38.39,1.12,57.62,1.72,18.43.57,35.06,2.73,52.07,7.89,11.65,3.53,28.75,7.55,30.94,17.44,1.41,6.38,1.4,17.16-4.87,22.25-4.78,3.89-11.14,3.54-17.78,4.59-7.49,1.18-14,4.1-21.47,5.53-12.31,2.38-24.76,5.49-37.47,6.54-13.49,1.12-27.43,1.11-41,1-26.32-.19-51.79,1.21-77.44-3.54-6-1.12-11.56-3.12-17.48-4.43-4.68-1-9.75-1.53-14.55-2.48-9.71-1.9-20.24-4.35-27.12-9.75-2-1.55-4.38-2.52-4.9-4.46C13.78,560.83,14.87,557.2,14.65,554.06Z"/><path class="cls-6" d="M278.77,549.19c-1.53-.13-5.13.64-7.32,1-6.92,1.05-14.32,1.45-21.36,1.92-21.19,1.4-42.28,1.53-63.53,2.59-23.84,1.2-49,5.31-72.72,2.29-21.27-2.7-42.74-3.88-64.37-4.66-8.22-.29-16.89.12-24.79-1.78a30.68,30.68,0,0,1-5.28-1.67,8.08,8.08,0,0,1-2.18-1.3,2.22,2.22,0,0,1-.24-.32H15.6a13.42,13.42,0,0,0-.95,6.84c.22,3.14-.87,6.77-.06,9.82.52,1.94,2.92,2.91,4.9,4.46,6.88,5.4,17.41,7.85,27.12,9.75,4.8.95,9.87,1.45,14.55,2.48,5.92,1.31,11.43,3.31,17.48,4.43,25.65,4.75,51.12,3.35,77.44,3.54,13.57.11,27.51.12,41-1,12.71-1,25.16-4.16,37.47-6.54,7.45-1.43,14-4.35,21.47-5.53,6.64-1.05,13-.7,17.78-4.59C279.9,565.93,280.06,555.62,278.77,549.19Z"/><path class="cls-7" d="M16.41,546.27a10.28,10.28,0,0,1,.57,1"/><path class="cls-7" d="M278.77,549.19c0-.18-.06-.39-.1-.56"/><path class="cls-7" d="M279,549.19h-.19C278.82,549.2,278.91,549.18,279,549.19Z"/><path class="cls-7" d="M16.41,546.27a.87.87,0,0,0-.43-.36,2.24,2.24,0,0,0-.38,1.31,8.19,8.19,0,0,1,.44-1Z"/><path class="cls-8" d="M17.17,469.12c-3.58-3.54-4.36-8.31-5.23-12.7-.8-4-.52-7.45,4-10.52,2.58-1.75,5.56-3.76,8.28-5.31,3.94-2.26,8.7-2.5,13.7-3.09,12.52-1.48,24-5.31,36.33-7.17,15.33-2.31,30.74-1.61,46.23-2.5,18.14-1,37.13-.77,55.34-.21,15.83.49,31.67.77,47.46,1.73,5.44.33,10.69,1.25,16.09,1.89,7.92.94,15.6,1.43,23.06,3.56,7,2,12.88,3.33,16,8.06,1.07,1.63,3,3.09,3.9,4.72.43.8.09,1.52.37,2.29.58,1.6,1.91,2.83,2,4.55.18,2.32-.54,4.91-.68,7.24-.24,4-3.21,5.66-6.73,8.68-3,2.55-5.73,2.26-10.24,3.36-6.44,1.56-13.06,2.63-19.51,4.16a64.21,64.21,0,0,1-11.51,2c-5.62.33-11.52,0-16.94,1.17-3.63.81-6.72,2-10.54,2.54-6.79.88-13.35.21-19.88,1.79-9.91,2.4-18.47.67-28.61-.21-13.53-1.18-26-.59-39.47.31a300.15,300.15,0,0,1-32.86.1c-12.65-.56-26.15-1-38.23-3.55-1.64-.34-2.92-.92-4.46-1.35s-3.47-.27-5.15-.45a48,48,0,0,1-11.39-2.74c-5-1.86-7.55-4.82-11-8Z"/><path class="cls-9" d="M282.65,449.87c-.28-.77.06-1.49-.37-2.29a13.38,13.38,0,0,0-2.22-2.73,10.43,10.43,0,0,1-.58,1.34c.26.13,1.23.49.85.39-8-.14-15.87,1.2-23.89.55-22.15-1.81-45.19-3-67.38-.76-10,1-20.31.68-30.19,2.34-6.61,1.11-13.05,2.75-19.63,4-12.55,2.32-25.72.06-38.49.08-4.61,0-8.9-1-13.48-.78-8.67.37-16.43,2.36-25.23,1.38s-16.49-.94-25.27-.95c-6,0-11.92.38-17.93.78a24,24,0,0,1-5.54.07,5.69,5.69,0,0,1-1.69-.14,15.32,15.32,0,0,0,.33,3.3c.87,4.39,1.65,9.16,5.23,12.7l.32.31c3.46,3.19,6,6.15,11,8a48,48,0,0,0,11.39,2.74c1.68.18,3.54,0,5.15.45s2.83,1,4.46,1.35c12.08,2.54,25.58,3,38.23,3.55a300.15,300.15,0,0,0,32.86-.1c13.46-.9,25.94-1.49,39.47-.31,10.14.88,18.7,2.61,28.6.21,6.54-1.58,13.1-.91,19.89-1.79,3.82-.5,6.91-1.73,10.54-2.54,5.42-1.21,11.32-.84,16.94-1.17a64.21,64.21,0,0,0,11.51-2c6.45-1.53,13.07-2.6,19.51-4.16,4.51-1.1,7.27-.81,10.25-3.36,3.51-3,6.48-4.66,6.72-8.68.14-2.33.86-4.92.68-7.24C284.56,452.7,283.23,451.47,282.65,449.87Z"/><path class="cls-10" d="M41.53,370.68c-.43-.26-.63.28-.8-.31,4.82-7.28,13.56-5.77,22.57-5,6.38.51,12.45-2.32,18.86-1.83,4,.3,13.56,4.59,12,9.07-1.85,5.27-17,.13-21.36.32-6.35.27-12,4.95-18.42,4-3.8-.55-4.22-2.83-7.19-4-2.59-1-5.55,0-8.23-.12A2.32,2.32,0,0,1,41.53,370.68Z"/><path class="cls-10" d="M126.1,366a5.56,5.56,0,0,1,6-4.62c4,.51,4.51,3.83,9.37,3.74-1.13,4.13-5.93,8.64-10.35,4.17-2.31-2.33-.54-3.53-5.72-2.08C124.81,366.1,125.25,365,126.1,366Z"/><path class="cls-10" d="M168.2,366.63c1-3.43,7.79-6.94,12-6.84,5.87.14,12.43,5,5.95,8.73-3.28,1.9-6.69.76-10.35,1.15-2.32.24-7.37,1.54-6.54-1.75-.46,0-.94-.05-1.38-.1C167.15,366.65,167.69,365.69,168.2,366.63Z"/><path class="cls-10" d="M226.46,361.35c-1.28-.18-5.9,2.06-5.59,4.29.51,3.77,5.24.35,7.48.34,3.77,0,6.56,2.7,10.59,2.91,4.7.24,12.23.68,14.21-3.81,3-6.78-11.71-4.13-16.47-4.36a27.58,27.58,0,0,0-6.48.07C228.75,361,227.06,363.1,226.46,361.35Z"/><text class="cls-11" transform="translate(374.14 65.15)">BUN — <tspan class="cls-12" x="69.89" y="0">KEY INGREDIENT</tspan></text><text class="cls-11" transform="translate(374.14 148.67)">TOMATO — <tspan class="cls-12" x="118.89" y="0">SUPPORTING (WET, SOFT)</tspan></text><text class="cls-11" transform="translate(374.14 212.81)">CHEESE — <tspan class="cls-12" x="106.73" y="0">SUPPORTING (CREAMY, SALTY)</tspan></text><text class="cls-11" transform="translate(374.14 290.76)">LETTUCE — <tspan class="cls-12" x="121.73" y="0">SUPPORTING (WET, CRUNCHY)</tspan></text><text class="cls-11" transform="translate(374.14 368.7)">SAUCE — <tspan class="cls-12" x="93.12" y="0">SAUCE (FLAVOR)</tspan></text><text class="cls-11" transform="translate(374.14 458.95)">PATTY — <tspan class="cls-12" x="92.83" y="0">KEY INGREDIENT</tspan></text><text class="cls-11" transform="translate(374.14 559.64)">BUN — <tspan class="cls-12" x="69.89" y="0">KEY INGREDIENT</tspan></text></svg>