<svg id="Layer_1" data-name="Layer 1" xmlns="http://www.w3.org/2000/svg" viewBox="0 0 536.37 114.8"><defs><style>.cls-1,.cls-2{stroke:#000;stroke-miterlimit:10;}.cls-1{stroke-width:1.41px;}.cls-2{stroke-width:0.58px;}</style></defs><title>cookbook-logo</title><path class="cls-1" d="M30,60.52q9,0,12.49-9.47l8.65,3.43A21.65,21.65,0,0,1,43,65.2,23.16,23.16,0,0,1,30,68.72q-11.44,0-17.69-6.8t-6.24-19q0-12.26,6-18.83t17.47-6.58q8.36,0,13.6,3.52a18.55,18.55,0,0,1,7.37,10.34L41.8,33.84a10.68,10.68,0,0,0-4.36-6,13.3,13.3,0,0,0-7.66-2.21q-6.74,0-10.21,4.39T16.08,42.88q0,8.59,3.59,13.12T30,60.52Z"/><path class="cls-1" d="M88.51,68l-11-18.91H65.86V68H55.93V18.22h23.7q8.48,0,13.09,3.83t4.61,11a14.66,14.66,0,0,1-2.83,9,13.18,13.18,0,0,1-7.64,5L99.69,68ZM87.33,33.48q0-7.17-8.75-7.17H65.86V41h13q4.17,0,6.33-2A7.18,7.18,0,0,0,87.33,33.48Z"/><path class="cls-1" d="M104,68V18.22h37.29v8.05H113.92V38.79h25.31v8.05H113.92V60h28.74V68Z"/><path class="cls-1" d="M181.77,68l-4.21-12.72H159.49L155.28,68h-9.93l17.3-49.79h11.71L191.6,68ZM168.51,25.89l-.21.77c-.22.85-.49,1.82-.8,2.9s-2.25,7.05-5.79,17.88h13.63l-4.68-14.31-1.45-4.81Z"/><path class="cls-1" d="M212.59,26.27V68h-9.93V26.27H187.35v-8h40.59v8.05Z"/><path class="cls-1" d="M231.57,68V18.22h9.93V68Z"/><path class="cls-1" d="M272.46,68H262.39L244.86,18.22h10.36l9.77,32c.6,2.07,1.43,5.21,2.49,9.4l.7-3,1.72-6.36,9.73-32h10.26Z"/><path class="cls-1" d="M293.25,68V18.22h37.3v8.05H303.18V38.79h25.31v8.05H303.18V60h28.75V68Z"/><path class="cls-1" d="M377.08,60.52q9,0,12.49-9.47l8.65,3.43A21.58,21.58,0,0,1,390,65.2a23.19,23.19,0,0,1-12.95,3.52q-11.44,0-17.68-6.8t-6.25-19q0-12.26,6-18.83t17.47-6.58q8.34,0,13.6,3.52a18.59,18.59,0,0,1,7.37,10.34l-8.76,2.51a10.71,10.71,0,0,0-4.35-6,13.32,13.32,0,0,0-7.66-2.21q-6.74,0-10.22,4.39t-3.48,12.82q0,8.59,3.58,13.12T377.08,60.52Z"/><path class="cls-1" d="M433.59,68V46.67H412.92V68H403V18.22h9.92V38h20.67V18.22h9.93V68Z"/><path class="cls-1" d="M451.05,68V18.22h37.3v8.05H461V38.79h25.31v8.05H461V60h28.75V68Z"/><path class="cls-1" d="M505.24,26.27V41.68h24.27v8.06H505.24V68h-9.93V18.22h35v8.05Z"/><path class="cls-2" d="M64.06,97l-1.73-5.23H54.9L53.17,97H49.08L56.2,76.56H61L68.1,97ZM58.6,79.72l-.08.31q-.14.52-.33,1.2t-2.38,7.35h5.6l-1.92-5.89-.6-2Z"/><path class="cls-2" d="M85.41,94a9.69,9.69,0,0,0,3.08-.49,6.11,6.11,0,0,0,2.31-1.24V89.41H86V86.24h8.5v7.53a10.47,10.47,0,0,1-4,2.61,14.5,14.5,0,0,1-5.21,1c-3.17,0-5.61-.93-7.32-2.77s-2.56-4.46-2.56-7.86.86-6,2.58-7.75,4.18-2.69,7.4-2.69q6.87,0,8.73,5.33l-3.76,1.19a4.63,4.63,0,0,0-1.91-2.35,5.68,5.68,0,0,0-3.06-.8A5.3,5.3,0,0,0,81,81.46a8.08,8.08,0,0,0-1.5,5.24,8.28,8.28,0,0,0,1.55,5.37A5.26,5.26,0,0,0,85.41,94Z"/><path class="cls-2" d="M105.59,97.33a8.5,8.5,0,0,1-6.16-2.07,7.79,7.79,0,0,1-2.14-5.9V76.56h4.08V89a5.43,5.43,0,0,0,1.1,3.68A4.07,4.07,0,0,0,105.7,94a4.32,4.32,0,0,0,3.37-1.31,5.52,5.52,0,0,0,1.17-3.78V76.56h4.09V89.15a7.88,7.88,0,0,1-2.29,6A9.09,9.09,0,0,1,105.59,97.33Z"/><path class="cls-2" d="M117.24,97V76.56h4.09V97Z"/><path class="cls-2" d="M141.79,86.65a12.21,12.21,0,0,1-1.18,5.53,8.49,8.49,0,0,1-3.35,3.61,9.8,9.8,0,0,1-5,1.25h-7.89V76.56h7.06q4.92,0,7.62,2.61T141.79,86.65Zm-4.11,0a7.09,7.09,0,0,0-1.63-5,6.1,6.1,0,0,0-4.67-1.73h-2.89V93.72H132a5.1,5.1,0,0,0,4.18-1.9A8,8,0,0,0,137.68,86.65Z"/><path class="cls-2" d="M144.17,97V76.56H159.5v3.32H148.25V85h10.41v3.31H148.25v5.39h11.82V97Z"/><path class="cls-2" d="M178.33,79.88V97h-4.08V79.88H168V76.56h16.69v3.32Z"/><path class="cls-2" d="M204.58,86.7a12.54,12.54,0,0,1-1.2,5.63A8.56,8.56,0,0,1,199.93,96a10.3,10.3,0,0,1-5.23,1.29,9.3,9.3,0,0,1-7.2-2.84,11.08,11.08,0,0,1-2.61-7.79q0-4.92,2.6-7.68a10.83,10.83,0,0,1,14.48,0A10.75,10.75,0,0,1,204.58,86.7Zm-4.16,0a8.12,8.12,0,0,0-1.5-5.19,5.06,5.06,0,0,0-4.19-1.88,5.11,5.11,0,0,0-4.24,1.87A8.15,8.15,0,0,0,189,86.7,8.39,8.39,0,0,0,190.53,92a5.56,5.56,0,0,0,8.4,0A8.52,8.52,0,0,0,200.42,86.7Z"/><path class="cls-2" d="M223.23,94c2.46,0,4.18-1.3,5.14-3.9l3.55,1.41a8.82,8.82,0,0,1-3.37,4.41,9.56,9.56,0,0,1-5.32,1.45,9.38,9.38,0,0,1-7.27-2.8c-1.71-1.87-2.57-4.47-2.57-7.83s.83-5.94,2.48-7.74,4-2.7,7.18-2.7a9.89,9.89,0,0,1,5.59,1.44,7.65,7.65,0,0,1,3,4.25l-3.6,1a4.35,4.35,0,0,0-1.79-2.44,5.43,5.43,0,0,0-3.15-.91,5.06,5.06,0,0,0-4.2,1.8,8.36,8.36,0,0,0-1.43,5.27A8.49,8.49,0,0,0,219,92.1,5.1,5.1,0,0,0,223.23,94Z"/><path class="cls-2" d="M247.28,97l-4.53-7.78H238V97h-4.09V76.56h9.75A8.2,8.2,0,0,1,249,78.14a5.57,5.57,0,0,1,1.9,4.53,6,6,0,0,1-1.17,3.71,5.4,5.4,0,0,1-3.14,2.05L251.87,97Zm-.48-14.2q0-3-3.6-3H238v6h5.34a3.73,3.73,0,0,0,2.6-.81A2.94,2.94,0,0,0,246.8,82.84Z"/><path class="cls-2" d="M253.64,97V76.56H269v3.32H257.73V85h10.4v3.31h-10.4v5.39h11.81V97Z"/><path class="cls-2" d="M285.62,97l-1.73-5.23h-7.43L274.73,97h-4.08l7.11-20.48h4.82L289.66,97Zm-5.45-17.32-.08.31-.34,1.2c-.12.44-.92,2.89-2.38,7.35H283l-1.92-5.89-.6-2Z"/><path class="cls-2" d="M298.3,79.88V97h-4.09V79.88h-6.29V76.56h16.69v3.32Z"/><path class="cls-2" d="M306.1,97V76.56h4.08V97Z"/><path class="cls-2" d="M322.91,97h-4.14l-7.21-20.48h4.26l4,13.15c.25.86.59,2.14,1,3.87l.29-1.25.71-2.62,4-13.15h4.22Z"/><path class="cls-2" d="M331.46,97V76.56h15.33v3.32H335.54V85H346v3.31H335.54v5.39h11.82V97Z"/><path class="cls-2" d="M365.93,94q3.69,0,5.13-3.9l3.56,1.41a8.88,8.88,0,0,1-3.37,4.41,9.58,9.58,0,0,1-5.32,1.45,9.38,9.38,0,0,1-7.27-2.8c-1.72-1.87-2.57-4.47-2.57-7.83s.82-5.94,2.48-7.74,4-2.7,7.18-2.7a9.89,9.89,0,0,1,5.59,1.44,7.65,7.65,0,0,1,3,4.25l-3.6,1A4.35,4.35,0,0,0,369,80.54a5.43,5.43,0,0,0-3.15-.91,5,5,0,0,0-4.2,1.8,8.36,8.36,0,0,0-1.43,5.27,8.56,8.56,0,0,0,1.47,5.4A5.11,5.11,0,0,0,365.93,94Z"/><path class="cls-2" d="M395.54,86.7a12.54,12.54,0,0,1-1.2,5.63A8.61,8.61,0,0,1,390.89,96a10.3,10.3,0,0,1-5.23,1.29,9.29,9.29,0,0,1-7.2-2.84,11.08,11.08,0,0,1-2.61-7.79c0-3.28.86-5.84,2.6-7.68a10.83,10.83,0,0,1,14.48,0A10.75,10.75,0,0,1,395.54,86.7Zm-4.17,0a8.12,8.12,0,0,0-1.49-5.19,5.06,5.06,0,0,0-4.19-1.88,5.11,5.11,0,0,0-4.24,1.87A8.15,8.15,0,0,0,380,86.7,8.39,8.39,0,0,0,381.49,92a5.56,5.56,0,0,0,8.4,0A8.52,8.52,0,0,0,391.37,86.7Z"/><path class="cls-2" d="M416.88,86.7a12.41,12.41,0,0,1-1.21,5.63A8.53,8.53,0,0,1,412.23,96,10.32,10.32,0,0,1,407,97.33a9.31,9.31,0,0,1-7.21-2.84,11.08,11.08,0,0,1-2.61-7.79q0-4.92,2.61-7.68a10.83,10.83,0,0,1,14.48,0A10.75,10.75,0,0,1,416.88,86.7Zm-4.17,0a8.18,8.18,0,0,0-1.49-5.19,5.68,5.68,0,0,0-8.43,0,8.09,8.09,0,0,0-1.5,5.2A8.39,8.39,0,0,0,402.82,92a5.56,5.56,0,0,0,8.4,0A8.45,8.45,0,0,0,412.71,86.7Z"/><path class="cls-2" d="M432.75,97l-7-9.41-2.41,1.94V97h-4.09V76.56h4.09v9.29l8.78-9.29h4.77l-8.34,8.66,9,11.82Z"/><path class="cls-2" d="M439,97V76.56h4.09V97Z"/><path class="cls-2" d="M458.05,97l-8.49-15.77c.16,1.53.25,2.76.25,3.69V97h-3.63V76.56h4.66l8.63,15.9a34.83,34.83,0,0,1-.25-4V76.56h3.62V97Z"/><path class="cls-2" d="M475.2,94a9.69,9.69,0,0,0,3.08-.49,6.11,6.11,0,0,0,2.31-1.24V89.41h-4.76V86.24h8.5v7.53a10.51,10.51,0,0,1-4,2.61,14.58,14.58,0,0,1-5.21,1c-3.18,0-5.62-.93-7.32-2.77s-2.56-4.46-2.56-7.86.85-6,2.57-7.75,4.18-2.69,7.4-2.69q6.87,0,8.74,5.33l-3.77,1.19a4.58,4.58,0,0,0-1.91-2.35,5.68,5.68,0,0,0-3.06-.8,5.31,5.31,0,0,0-4.37,1.83,8.08,8.08,0,0,0-1.49,5.24,8.28,8.28,0,0,0,1.54,5.37A5.26,5.26,0,0,0,475.2,94Z"/></svg>