<svg id="Layer_1" data-name="Layer 1" xmlns="http://www.w3.org/2000/svg" viewBox="0 0 536.37 90.98"><defs><style>.cls-1,.cls-2{stroke:#000;stroke-miterlimit:10;}.cls-1{stroke-width:1.15px;}.cls-2{stroke-width:0.55px;}</style></defs><title>cookbook-logo</title><path class="cls-1" d="M.91,53.52v-41h8v41Z"/><path class="cls-1" d="M38,53.52,21.43,22a72.28,72.28,0,0,1,.49,7.39V53.52H14.86v-41h9.08L40.72,44.35a74.13,74.13,0,0,1-.48-8V12.52h7v41Z"/><path class="cls-1" d="M87.16,32.71a25.15,25.15,0,0,1-2.3,11.08A16.61,16.61,0,0,1,78.34,51a18.6,18.6,0,0,1-9.66,2.51H53.32v-41H67.06q9.59,0,14.84,5.23T87.16,32.71Zm-8,0q0-6.6-3.18-10.08T66.9,19.16H61.27V46.88H68a9.83,9.83,0,0,0,8.14-3.81Q79.16,39.26,79.16,32.71Z"/><path class="cls-1" d="M91.79,53.52v-41h29.84v6.64H99.73v10.3H120v6.63H99.73V46.88h23v6.64Z"/><path class="cls-1" d="M158.43,25.5a14.76,14.76,0,0,1-1.67,7.07A11.63,11.63,0,0,1,152,37.38a15.09,15.09,0,0,1-7.39,1.71h-9.43V53.52h-7.94v-41h17q6.81,0,10.49,3.39T158.43,25.5Zm-8,.14q0-6.45-7.06-6.45h-8.22V32.48h8.43a6.89,6.89,0,0,0,5.07-1.76A6.84,6.84,0,0,0,150.43,25.64Z"/><path class="cls-1" d="M162.62,53.52v-41h29.85v6.64h-21.9v10.3h20.26v6.63H170.57V46.88h23v6.64Z"/><path class="cls-1" d="M221.16,53.52,204.62,22q.48,4.61.48,7.39V53.52H198v-41h9.08L223.9,44.35a74.13,74.13,0,0,1-.48-8V12.52h7.06v41Z"/><path class="cls-1" d="M270.34,32.71A25.15,25.15,0,0,1,268,43.79,16.61,16.61,0,0,1,261.52,51a18.55,18.55,0,0,1-9.66,2.51H236.51v-41h13.74q9.58,0,14.84,5.23T270.34,32.71Zm-8,0q0-6.6-3.18-10.08t-9.08-3.47h-5.63V46.88h6.74a9.83,9.83,0,0,0,8.13-3.81Q262.33,39.26,262.34,32.71Z"/><path class="cls-1" d="M275,53.52v-41h29.85v6.64h-21.9v10.3h20.25v6.63H282.92V46.88h23v6.64Z"/><path class="cls-1" d="M333.5,53.52,317,22a72.28,72.28,0,0,1,.49,7.39V53.52h-7.06v-41h9.08l16.78,31.83a74.13,74.13,0,0,1-.48-8V12.52h7.05v41Z"/><path class="cls-1" d="M366,19.16V53.52H358V19.16H345.78V12.52h32.49v6.64Z"/><path class="cls-1" d="M412.85,47.35q7.18,0,10-7.8l6.93,2.82a17.78,17.78,0,0,1-6.56,8.83,18.21,18.21,0,0,1-10.36,2.9q-9.17,0-14.16-5.6t-5-15.67q0-10.09,4.83-15.51t14-5.41q6.67,0,10.88,2.9a15.27,15.27,0,0,1,5.9,8.51l-7,2.06a8.83,8.83,0,0,0-3.49-4.9,10.46,10.46,0,0,0-6.13-1.82c-3.59,0-6.32,1.21-8.18,3.61s-2.79,5.93-2.79,10.56,1,8.31,2.87,10.79S409.24,47.35,412.85,47.35Z"/><path class="cls-1" d="M458.07,53.52V35.94H441.53V53.52h-7.94v-41h7.94V28.85h16.54V12.52H466v41Z"/><path class="cls-1" d="M472.05,53.52v-41H501.9v6.64H480v10.3h20.25v6.63H480V46.88h23v6.64Z"/><path class="cls-1" d="M515.41,19.16V31.84h19.43v6.64H515.41v15h-7.94v-41h28v6.64Z"/><path class="cls-2" d="M34.56,78.78l-1.63-5.07h-7L24.3,78.78H20.45l6.7-19.84h4.54l6.67,19.84ZM29.42,62l-.08.31c-.09.33-.19.72-.31,1.15s-.87,2.81-2.24,7.13h5.28l-1.82-5.71L29.69,63Z"/><path class="cls-2" d="M54.67,75.81a9.24,9.24,0,0,0,2.91-.47,5.85,5.85,0,0,0,2.17-1.21V71.39H55.27V68.32h8v7.29a9.81,9.81,0,0,1-3.8,2.54,13.33,13.33,0,0,1-4.91.91,8.76,8.76,0,0,1-6.89-2.68c-1.61-1.79-2.42-4.32-2.42-7.61s.81-5.77,2.43-7.51,3.94-2.61,7-2.61q6.48,0,8.23,5.16L59.34,65a4.51,4.51,0,0,0-1.8-2.28,5.27,5.27,0,0,0-2.89-.78,4.94,4.94,0,0,0-4.12,1.78,8,8,0,0,0-1.4,5.08A8.19,8.19,0,0,0,50.58,74,4.9,4.9,0,0,0,54.67,75.81Z"/><path class="cls-2" d="M73.69,79.06a7.87,7.87,0,0,1-5.81-2,7.71,7.71,0,0,1-2-5.71V58.94h3.85V71a5.37,5.37,0,0,0,1,3.57,3.77,3.77,0,0,0,3,1.22A4,4,0,0,0,77,74.54a5.41,5.41,0,0,0,1.11-3.66V58.94h3.84v12.2A7.78,7.78,0,0,1,79.76,77,8.43,8.43,0,0,1,73.69,79.06Z"/><path class="cls-2" d="M84.66,78.78V58.94h3.85V78.78Z"/><path class="cls-2" d="M107.79,68.71a12,12,0,0,1-1.12,5.36,8,8,0,0,1-3.15,3.5,9,9,0,0,1-4.68,1.21H91.41V58.94h6.65c3.1,0,5.49.84,7.19,2.53S107.79,65.57,107.79,68.71Zm-3.87,0a7,7,0,0,0-1.54-4.88A5.67,5.67,0,0,0,98,62.15H95.26V75.57h3.26a4.77,4.77,0,0,0,3.94-1.84A7.89,7.89,0,0,0,103.92,68.71Z"/><path class="cls-2" d="M110,78.78V58.94h14.44v3.21h-10.6v5h9.81v3.21h-9.81v5.22H125v3.21Z"/><path class="cls-2" d="M142.21,62.15V78.78h-3.84V62.15h-5.94V58.94h15.73v3.21Z"/><path class="cls-2" d="M166.94,68.77a12.49,12.49,0,0,1-1.13,5.45,8.2,8.2,0,0,1-3.25,3.6,9.53,9.53,0,0,1-4.93,1.24,8.61,8.61,0,0,1-6.78-2.75,10.92,10.92,0,0,1-2.46-7.54c0-3.18.82-5.67,2.45-7.45a10,10,0,0,1,13.64,0A10.62,10.62,0,0,1,166.94,68.77Zm-3.92,0a8,8,0,0,0-1.41-5,4.71,4.71,0,0,0-4-1.83,4.78,4.78,0,0,0-4,1.81,8,8,0,0,0-1.41,5,8.29,8.29,0,0,0,1.44,5.15,4.69,4.69,0,0,0,3.93,1.88,4.74,4.74,0,0,0,4-1.83A8.44,8.44,0,0,0,163,68.77Z"/><path class="cls-2" d="M184.51,75.8q3.48,0,4.84-3.78l3.35,1.37a8.59,8.59,0,0,1-3.17,4.27,9.88,9.88,0,0,1-11.87-1.31q-2.41-2.7-2.42-7.58t2.34-7.51c1.55-1.74,3.81-2.61,6.76-2.61a9.06,9.06,0,0,1,5.27,1.4,7.36,7.36,0,0,1,2.86,4.12l-3.39,1a4.27,4.27,0,0,0-1.69-2.38,5.1,5.1,0,0,0-3-.88,4.69,4.69,0,0,0-4,1.75,8.24,8.24,0,0,0-1.35,5.11A8.46,8.46,0,0,0,180.5,74,4.76,4.76,0,0,0,184.51,75.8Z"/><path class="cls-2" d="M212.41,68.77a12.49,12.49,0,0,1-1.13,5.45,8.2,8.2,0,0,1-3.25,3.6,9.53,9.53,0,0,1-4.93,1.24,8.63,8.63,0,0,1-6.79-2.75,11,11,0,0,1-2.45-7.54c0-3.18.81-5.67,2.45-7.45a10,10,0,0,1,13.64,0A10.62,10.62,0,0,1,212.41,68.77Zm-3.92,0a8,8,0,0,0-1.41-5,4.71,4.71,0,0,0-4-1.83,4.78,4.78,0,0,0-4,1.81,8,8,0,0,0-1.41,5,8.29,8.29,0,0,0,1.44,5.15,5.14,5.14,0,0,0,7.91,0A8.38,8.38,0,0,0,208.49,68.77Z"/><path class="cls-2" d="M232.51,68.77a12.49,12.49,0,0,1-1.13,5.45,8.2,8.2,0,0,1-3.25,3.6,9.53,9.53,0,0,1-4.93,1.24,8.6,8.6,0,0,1-6.78-2.75A10.92,10.92,0,0,1,214,68.77c0-3.18.82-5.67,2.45-7.45a10,10,0,0,1,13.64,0A10.62,10.62,0,0,1,232.51,68.77Zm-3.92,0a8,8,0,0,0-1.41-5,4.71,4.71,0,0,0-4-1.83,4.78,4.78,0,0,0-4,1.81,8,8,0,0,0-1.41,5,8.29,8.29,0,0,0,1.44,5.15,4.69,4.69,0,0,0,3.93,1.88,4.74,4.74,0,0,0,4-1.83A8.44,8.44,0,0,0,228.59,68.77Z"/><path class="cls-2" d="M247.46,78.78l-6.59-9.11-2.27,1.87v7.24h-3.85V58.94h3.85v9l8.28-9h4.48l-7.85,8.39L252,78.78Z"/><path class="cls-2" d="M253.37,78.78V58.94h3.84V78.78Z"/><path class="cls-2" d="M271.3,78.78l-8-15.28c.15,1.49.23,2.68.23,3.58v11.7h-3.41V58.94h4.39l8.12,15.41a37.25,37.25,0,0,1-.23-3.88V58.94h3.41V78.78Z"/><path class="cls-2" d="M287.45,75.81a9.24,9.24,0,0,0,2.91-.47,5.82,5.82,0,0,0,2.18-1.21V71.39h-4.49V68.32h8v7.29a9.81,9.81,0,0,1-3.8,2.54,13.37,13.37,0,0,1-4.91.91,8.8,8.8,0,0,1-6.9-2.68c-1.61-1.79-2.41-4.32-2.41-7.61s.81-5.77,2.43-7.51,3.94-2.61,7-2.61q6.46,0,8.23,5.16L292.12,65a4.41,4.41,0,0,0-1.8-2.28,5.24,5.24,0,0,0-2.88-.78,4.93,4.93,0,0,0-4.12,1.78,8,8,0,0,0-1.41,5.08,8.19,8.19,0,0,0,1.46,5.2A4.9,4.9,0,0,0,287.45,75.81Z"/><path class="cls-2" d="M309.43,62.15v6.14h9.4V71.5h-9.4v7.28h-3.85V58.94h13.55v3.21Z"/><path class="cls-2" d="M328.87,79.06a7.87,7.87,0,0,1-5.81-2,7.71,7.71,0,0,1-2-5.71V58.94h3.85V71a5.37,5.37,0,0,0,1,3.57,3.77,3.77,0,0,0,3,1.22,4,4,0,0,0,3.17-1.27,5.41,5.41,0,0,0,1.11-3.66V58.94h3.84v12.2A7.78,7.78,0,0,1,334.94,77,8.43,8.43,0,0,1,328.87,79.06Z"/><path class="cls-2" d="M351,78.78,343,63.5a35.17,35.17,0,0,1,.24,3.58v11.7h-3.42V58.94h4.4l8.12,15.41a34.86,34.86,0,0,1-.24-3.88V58.94h3.42V78.78Z"/><path class="cls-2" d="M374.83,68.71a12.13,12.13,0,0,1-1.11,5.36,8.1,8.1,0,0,1-3.16,3.5,9,9,0,0,1-4.67,1.21h-7.43V58.94h6.65c3.09,0,5.49.84,7.18,2.53S374.83,65.57,374.83,68.71Zm-3.87,0a7,7,0,0,0-1.54-4.88A5.65,5.65,0,0,0,365,62.15H362.3V75.57h3.26a4.76,4.76,0,0,0,3.94-1.84A7.89,7.89,0,0,0,371,68.71Z"/><path class="cls-2" d="M390.06,78.78l-1.63-5.07h-7l-1.63,5.07H376l6.7-19.84h4.54l6.67,19.84ZM384.92,62l-.08.31c-.08.33-.19.72-.31,1.15s-.87,2.81-2.24,7.13h5.28l-1.81-5.71L385.19,63Z"/><path class="cls-2" d="M410.94,78.78v-12c0-.28,0-.55,0-.82s0-1.44.12-3.51c-.62,2.53-1.07,4.29-1.37,5.28l-3.31,11.07h-2.74l-3.31-11.07L399,62.43c.1,2.18.15,3.62.15,4.33v12h-3.41V58.94h5.15L404.12,70l.29,1.07.63,2.66.82-3.18,3.37-11.65h5.13V78.78Z"/><path class="cls-2" d="M417.26,78.78V58.94h14.45v3.21h-10.6v5h9.8v3.21h-9.8v5.22h11.13v3.21Z"/><path class="cls-2" d="M445.59,78.78l-8-15.28c.15,1.49.23,2.68.23,3.58v11.7H434.4V58.94h4.4l8.12,15.41a34.69,34.69,0,0,1-.23-3.88V58.94h3.41V78.78Z"/><path class="cls-2" d="M461.31,62.15V78.78h-3.84V62.15h-5.94V58.94h15.73v3.21Z"/><path class="cls-2" d="M479.67,78.78,478,73.71h-7l-1.63,5.07h-3.84l6.7-19.84h4.54l6.67,19.84ZM474.53,62l-.08.31c-.09.33-.19.72-.31,1.15s-.87,2.81-2.24,7.13h5.28l-1.82-5.71L474.8,63Z"/><path class="cls-2" d="M485.3,78.78V58.94h3.84V75.57H499v3.21Z"/><path class="cls-2" d="M515.92,73.06a5.3,5.3,0,0,1-2,4.46A9.52,9.52,0,0,1,508,79.06a9.85,9.85,0,0,1-5.54-1.35,6.22,6.22,0,0,1-2.58-4.1l3.72-.66a3.56,3.56,0,0,0,1.47,2.29,5.58,5.58,0,0,0,3,.71c2.68,0,4-.88,4-2.65a2.09,2.09,0,0,0-.47-1.39,3.52,3.52,0,0,0-1.3-.92,21.54,21.54,0,0,0-3.23-.88,28.87,28.87,0,0,1-2.87-.84,8,8,0,0,1-1.46-.75,4.32,4.32,0,0,1-1.1-1,4.5,4.5,0,0,1-.71-1.42,6.33,6.33,0,0,1-.26-1.88,4.85,4.85,0,0,1,1.87-4.11,8.81,8.81,0,0,1,5.45-1.43,9.28,9.28,0,0,1,5.13,1.15,5.61,5.61,0,0,1,2.21,3.82l-3.73.55a3.1,3.1,0,0,0-1.17-1.93,4.23,4.23,0,0,0-2.52-.65c-2.33,0-3.5.79-3.5,2.36a2.1,2.1,0,0,0,.37,1.27,2.9,2.9,0,0,0,1.11.84,17.62,17.62,0,0,0,3,.87,21.24,21.24,0,0,1,3.78,1.12,5.86,5.86,0,0,1,1.81,1.19,4.79,4.79,0,0,1,1,1.63A6.45,6.45,0,0,1,515.92,73.06Z"/></svg>