<svg id="Layer_1" data-name="Layer 1" xmlns="http://www.w3.org/2000/svg" viewBox="0 0 536.37 90.98"><defs><style>.cls-1,.cls-2{stroke:#000;stroke-miterlimit:10;}.cls-1{stroke-width:1.15px;}.cls-2{stroke-width:0.55px;}</style></defs><title>cookbook-logo</title><path class="cls-1" d="M.59,53.52v-41h8v41Z"/><path class="cls-1" d="M37.65,53.52,21.11,22a72.28,72.28,0,0,1,.49,7.39V53.52H14.54v-41h9.08L40.4,44.35a74.13,74.13,0,0,1-.48-8V12.52h7v41Z"/><path class="cls-1" d="M86.84,32.71a25.15,25.15,0,0,1-2.3,11.08A16.61,16.61,0,0,1,78,51a18.55,18.55,0,0,1-9.66,2.51H53v-41H66.74q9.6,0,14.85,5.23T86.84,32.71Zm-8,0q0-6.6-3.18-10.08t-9.08-3.47H61V46.88h6.74a9.83,9.83,0,0,0,8.13-3.81Q78.84,39.26,78.84,32.71Z"/><path class="cls-1" d="M91.47,53.52v-41h29.84v6.64H99.41v10.3h20.26v6.63H99.41V46.88h23v6.64Z"/><path class="cls-1" d="M158.11,25.5a14.76,14.76,0,0,1-1.67,7.07,11.66,11.66,0,0,1-4.78,4.81,15.15,15.15,0,0,1-7.4,1.71h-9.43V53.52h-7.94v-41h17q6.81,0,10.49,3.39T158.11,25.5Zm-8,.14q0-6.45-7.06-6.45h-8.22V32.48h8.43a6.87,6.87,0,0,0,5.07-1.76A6.84,6.84,0,0,0,150.11,25.64Z"/><path class="cls-1" d="M162.3,53.52v-41h29.85v6.64h-21.9v10.3h20.26v6.63H170.25V46.88h23v6.64Z"/><path class="cls-1" d="M220.84,53.52,204.3,22q.48,4.61.48,7.39V53.52h-7.06v-41h9.08l16.79,31.83a71.83,71.83,0,0,1-.49-8V12.52h7.06v41Z"/><path class="cls-1" d="M270,32.71a25.15,25.15,0,0,1-2.3,11.08A16.61,16.61,0,0,1,261.2,51a18.55,18.55,0,0,1-9.66,2.51H236.19v-41h13.74q9.58,0,14.84,5.23T270,32.71Zm-8,0q0-6.6-3.18-10.08t-9.08-3.47h-5.63V46.88h6.74A9.83,9.83,0,0,0,259,43.07Q262,39.26,262,32.71Z"/><path class="cls-1" d="M274.65,53.52v-41H304.5v6.64H282.6v10.3h20.26v6.63H282.6V46.88h23v6.64Z"/><path class="cls-1" d="M333.18,53.52,316.64,22a72.28,72.28,0,0,1,.49,7.39V53.52h-7.06v-41h9.08l16.78,31.83a74.13,74.13,0,0,1-.48-8V12.52h7.05v41Z"/><path class="cls-1" d="M365.67,19.16V53.52h-7.95V19.16H345.46V12.52H378v6.64Z"/><path class="cls-1" d="M412.53,47.35q7.19,0,10-7.8l6.93,2.82a17.78,17.78,0,0,1-6.56,8.83,18.21,18.21,0,0,1-10.36,2.9q-9.16,0-14.16-5.6t-5-15.67q0-10.09,4.83-15.51t14-5.41q6.68,0,10.88,2.9a15.27,15.27,0,0,1,5.9,8.51l-7,2.06a8.83,8.83,0,0,0-3.49-4.9,10.44,10.44,0,0,0-6.13-1.82c-3.59,0-6.32,1.21-8.18,3.61s-2.78,5.93-2.78,10.56.95,8.31,2.87,10.79S408.92,47.35,412.53,47.35Z"/><path class="cls-1" d="M457.75,53.52V35.94H441.21V53.52h-7.94v-41h7.94V28.85h16.54V12.52h7.95v41Z"/><path class="cls-1" d="M471.73,53.52v-41h29.85v6.64h-21.9v10.3h20.25v6.63H479.68V46.88h23v6.64Z"/><path class="cls-1" d="M515.1,19.16V31.84h19.42v6.64H515.1v15h-8v-41h28v6.64Z"/><path class="cls-2" d="M14.5,78.78l-1.63-5.07h-7L4.24,78.78H.39l6.7-19.84h4.54L18.3,78.78ZM9.36,62l-.08.31c-.08.33-.19.72-.31,1.15s-.87,2.81-2.24,7.13H12L10.2,64.88,9.64,63Z"/><path class="cls-2" d="M34.61,75.81a9.24,9.24,0,0,0,2.91-.47,5.77,5.77,0,0,0,2.17-1.21V71.39H35.21V68.32h8v7.29a9.81,9.81,0,0,1-3.8,2.54,13.32,13.32,0,0,1-4.9.91,8.8,8.8,0,0,1-6.9-2.68C26,74.59,25.2,72.06,25.2,68.77S26,63,27.62,61.26s3.94-2.61,7-2.61q6.46,0,8.22,5.16L39.28,65a4.51,4.51,0,0,0-1.8-2.28,5.26,5.26,0,0,0-2.88-.78,4.93,4.93,0,0,0-4.12,1.78,8,8,0,0,0-1.41,5.08A8.19,8.19,0,0,0,30.52,74,4.9,4.9,0,0,0,34.61,75.81Z"/><path class="cls-2" d="M53.63,79.06a7.87,7.87,0,0,1-5.81-2,7.7,7.7,0,0,1-2-5.71V58.94h3.84V71a5.37,5.37,0,0,0,1,3.57,3.77,3.77,0,0,0,3,1.22,4,4,0,0,0,3.17-1.27A5.41,5.41,0,0,0,58,70.88V58.94h3.85v12.2A7.75,7.75,0,0,1,59.7,77,8.41,8.41,0,0,1,53.63,79.06Z"/><path class="cls-2" d="M64.6,78.78V58.94h3.85V78.78Z"/><path class="cls-2" d="M87.73,68.71a12.13,12.13,0,0,1-1.11,5.36,8.1,8.1,0,0,1-3.16,3.5,9,9,0,0,1-4.67,1.21H71.35V58.94H78c3.1,0,5.49.84,7.19,2.53S87.73,65.57,87.73,68.71Zm-3.87,0a7,7,0,0,0-1.54-4.88,5.66,5.66,0,0,0-4.39-1.68H75.2V75.57h3.26a4.77,4.77,0,0,0,3.94-1.84A7.89,7.89,0,0,0,83.86,68.71Z"/><path class="cls-2" d="M90,78.78V58.94h14.45v3.21H93.82v5h9.8v3.21h-9.8v5.22H105v3.21Z"/><path class="cls-2" d="M122.15,62.15V78.78h-3.84V62.15h-5.93V58.94H128.1v3.21Z"/><path class="cls-2" d="M146.88,68.77a12.35,12.35,0,0,1-1.13,5.45,8.2,8.2,0,0,1-3.25,3.6,9.49,9.49,0,0,1-4.92,1.24,8.62,8.62,0,0,1-6.79-2.75,10.92,10.92,0,0,1-2.46-7.54c0-3.18.82-5.67,2.45-7.45a10,10,0,0,1,13.65,0A10.61,10.61,0,0,1,146.88,68.77Zm-3.92,0a8,8,0,0,0-1.41-5,4.69,4.69,0,0,0-4-1.83,4.78,4.78,0,0,0-4,1.81,8,8,0,0,0-1.41,5,8.23,8.23,0,0,0,1.45,5.15,5.14,5.14,0,0,0,7.91,0A8.44,8.44,0,0,0,143,68.77Z"/><path class="cls-2" d="M164.45,75.8c2.32,0,3.94-1.26,4.84-3.78l3.35,1.37a8.59,8.59,0,0,1-3.17,4.27,9.88,9.88,0,0,1-11.87-1.31q-2.41-2.7-2.42-7.58t2.34-7.51c1.55-1.74,3.81-2.61,6.76-2.61a9,9,0,0,1,5.27,1.4,7.36,7.36,0,0,1,2.86,4.12l-3.39,1a4.27,4.27,0,0,0-1.69-2.38,5.1,5.1,0,0,0-3-.88,4.67,4.67,0,0,0-4,1.75,8.24,8.24,0,0,0-1.35,5.11A8.39,8.39,0,0,0,160.45,74,4.72,4.72,0,0,0,164.45,75.8Z"/><path class="cls-2" d="M192.35,68.77a12.49,12.49,0,0,1-1.13,5.45,8.2,8.2,0,0,1-3.25,3.6A9.53,9.53,0,0,1,183,79.06a8.61,8.61,0,0,1-6.78-2.75,10.92,10.92,0,0,1-2.46-7.54c0-3.18.82-5.67,2.45-7.45a10,10,0,0,1,13.64,0A10.62,10.62,0,0,1,192.35,68.77Zm-3.92,0a8,8,0,0,0-1.41-5,4.71,4.71,0,0,0-4-1.83,4.78,4.78,0,0,0-4,1.81,8,8,0,0,0-1.41,5,8.29,8.29,0,0,0,1.44,5.15A4.69,4.69,0,0,0,183,75.8,4.74,4.74,0,0,0,187,74,8.44,8.44,0,0,0,188.43,68.77Z"/><path class="cls-2" d="M212.45,68.77a12.35,12.35,0,0,1-1.13,5.45,8.2,8.2,0,0,1-3.25,3.6,9.53,9.53,0,0,1-4.93,1.24,8.61,8.61,0,0,1-6.78-2.75,10.92,10.92,0,0,1-2.46-7.54c0-3.18.82-5.67,2.45-7.45a10,10,0,0,1,13.65,0A10.66,10.66,0,0,1,212.45,68.77Zm-3.92,0a8,8,0,0,0-1.41-5,4.69,4.69,0,0,0-4-1.83,4.78,4.78,0,0,0-4,1.81,8,8,0,0,0-1.41,5,8.29,8.29,0,0,0,1.44,5.15,5.15,5.15,0,0,0,7.92,0A8.44,8.44,0,0,0,208.53,68.77Z"/><path class="cls-2" d="M227.4,78.78l-6.59-9.11-2.27,1.87v7.24h-3.85V58.94h3.85v9l8.28-9h4.48l-7.85,8.39,8.49,11.45Z"/><path class="cls-2" d="M233.31,78.78V58.94h3.84V78.78Z"/><path class="cls-2" d="M251.25,78.78l-8-15.28a34.68,34.68,0,0,1,.23,3.58v11.7h-3.41V58.94h4.39l8.13,15.41a34.86,34.86,0,0,1-.24-3.88V58.94h3.42V78.78Z"/><path class="cls-2" d="M267.4,75.81a9.13,9.13,0,0,0,2.9-.47,5.82,5.82,0,0,0,2.18-1.21V71.39H268V68.32h8v7.29a9.81,9.81,0,0,1-3.8,2.54,13.37,13.37,0,0,1-4.91.91,8.76,8.76,0,0,1-6.89-2.68c-1.61-1.79-2.42-4.32-2.42-7.61s.81-5.77,2.43-7.51,3.94-2.61,7-2.61q6.47,0,8.23,5.16L272.06,65a4.41,4.41,0,0,0-1.8-2.28,5.22,5.22,0,0,0-2.88-.78,4.94,4.94,0,0,0-4.12,1.78,8,8,0,0,0-1.4,5.08,8.19,8.19,0,0,0,1.45,5.2A4.9,4.9,0,0,0,267.4,75.81Z"/><path class="cls-2" d="M289.37,62.15v6.14h9.4V71.5h-9.4v7.28h-3.84V58.94h13.54v3.21Z"/><path class="cls-2" d="M308.81,79.06a7.87,7.87,0,0,1-5.81-2,7.7,7.7,0,0,1-2-5.71V58.94h3.84V71a5.37,5.37,0,0,0,1,3.57,3.77,3.77,0,0,0,3,1.22,4,4,0,0,0,3.17-1.27,5.41,5.41,0,0,0,1.11-3.66V58.94H317v12.2A7.75,7.75,0,0,1,314.88,77,8.41,8.41,0,0,1,308.81,79.06Z"/><path class="cls-2" d="M331,78.78,323,63.5c.15,1.49.23,2.68.23,3.58v11.7h-3.42V58.94h4.4l8.12,15.41a34.69,34.69,0,0,1-.23-3.88V58.94h3.41V78.78Z"/><path class="cls-2" d="M354.77,68.71a12.13,12.13,0,0,1-1.11,5.36,8,8,0,0,1-3.16,3.5,8.93,8.93,0,0,1-4.67,1.21H338.4V58.94h6.65c3.09,0,5.49.84,7.18,2.53S354.77,65.57,354.77,68.71Zm-3.87,0a7,7,0,0,0-1.54-4.88A5.65,5.65,0,0,0,345,62.15h-2.72V75.57h3.25a4.74,4.74,0,0,0,3.94-1.84A7.83,7.83,0,0,0,350.9,68.71Z"/><path class="cls-2" d="M370,78.78l-1.63-5.07h-7l-1.63,5.07h-3.85l6.7-19.84h4.54l6.68,19.84ZM364.86,62l-.08.31c-.08.33-.19.72-.31,1.15s-.87,2.81-2.24,7.13h5.28l-1.81-5.71L365.14,63Z"/><path class="cls-2" d="M390.88,78.78v-12c0-.28,0-.55,0-.82s.05-1.44.12-3.51q-.92,3.79-1.37,5.28l-3.31,11.07H383.6l-3.32-11.07-1.39-5.28c.1,2.18.16,3.62.16,4.33v12h-3.42V58.94h5.15L384.06,70l.29,1.07.63,2.66.82-3.18,3.38-11.65h5.12V78.78Z"/><path class="cls-2" d="M397.2,78.78V58.94h14.45v3.21h-10.6v5h9.8v3.21h-9.8v5.22h11.13v3.21Z"/><path class="cls-2" d="M425.53,78.78l-8-15.28c.15,1.49.23,2.68.23,3.58v11.7h-3.41V58.94h4.39l8.12,15.41a37.25,37.25,0,0,1-.23-3.88V58.94H430V78.78Z"/><path class="cls-2" d="M441.25,62.15V78.78h-3.84V62.15h-5.94V58.94H447.2v3.21Z"/><path class="cls-2" d="M459.61,78.78,458,73.71h-7l-1.63,5.07H445.5l6.7-19.84h4.54l6.67,19.84ZM454.47,62l-.08.31c-.08.33-.19.72-.31,1.15s-.87,2.81-2.24,7.13h5.28l-1.81-5.71L454.74,63Z"/><path class="cls-2" d="M465.24,78.78V58.94h3.84V75.57h9.86v3.21Z"/><path class="cls-2" d="M495.86,73.06a5.3,5.3,0,0,1-2,4.46A9.49,9.49,0,0,1,488,79.06a9.86,9.86,0,0,1-5.55-1.35,6.25,6.25,0,0,1-2.58-4.1l3.72-.66a3.56,3.56,0,0,0,1.47,2.29,5.58,5.58,0,0,0,3,.71q4,0,4-2.65a2.13,2.13,0,0,0-.46-1.39,3.56,3.56,0,0,0-1.31-.92,21.18,21.18,0,0,0-3.23-.88,28.45,28.45,0,0,1-2.86-.84,7.41,7.41,0,0,1-1.46-.75,4.21,4.21,0,0,1-1.11-1,4.5,4.5,0,0,1-.71-1.42,6.33,6.33,0,0,1-.26-1.88,4.87,4.87,0,0,1,1.87-4.11A8.83,8.83,0,0,1,488,58.65a9.28,9.28,0,0,1,5.13,1.15,5.57,5.57,0,0,1,2.21,3.82l-3.73.55a3.1,3.1,0,0,0-1.17-1.93,4.23,4.23,0,0,0-2.52-.65c-2.33,0-3.5.79-3.5,2.36a2,2,0,0,0,.38,1.27,2.79,2.79,0,0,0,1.1.84,17.62,17.62,0,0,0,3,.87,21.24,21.24,0,0,1,3.78,1.12,5.74,5.74,0,0,1,1.81,1.19,4.79,4.79,0,0,1,1,1.63A6.45,6.45,0,0,1,495.86,73.06Z"/></svg>