<svg id="Layer_1" data-name="Layer 1" xmlns="http://www.w3.org/2000/svg" viewBox="0 0 536.37 43.41"><defs><style>.cls-1{stroke:#000;stroke-miterlimit:10;stroke-width:1.15px;}</style></defs><title>cookbook-logo</title><path class="cls-1" d="M.91,42.23v-41h8v41Z"/><path class="cls-1" d="M38,42.23,21.43,10.66a72.28,72.28,0,0,1,.49,7.39V42.23H14.86v-41h9.08L40.72,33.06a74,74,0,0,1-.48-8V1.23h7v41Z"/><path class="cls-1" d="M87.16,21.43a25.1,25.1,0,0,1-2.3,11.07,16.69,16.69,0,0,1-6.52,7.23,18.69,18.69,0,0,1-9.66,2.5H53.32v-41H67.06q9.59,0,14.84,5.23T87.16,21.43Zm-8,0q0-6.61-3.18-10.09T66.9,7.87H61.27V35.59H68a9.83,9.83,0,0,0,8.14-3.81Q79.16,28,79.16,21.43Z"/><path class="cls-1" d="M91.79,42.23v-41h29.84V7.87H99.73v10.3H120V24.8H99.73V35.59h23v6.64Z"/><path class="cls-1" d="M158.43,14.21a14.74,14.74,0,0,1-1.67,7.07A11.71,11.71,0,0,1,152,26.1a15.2,15.2,0,0,1-7.39,1.7h-9.43V42.23h-7.94v-41h17q6.81,0,10.49,3.39T158.43,14.21Zm-8,.15q0-6.46-7.06-6.46h-8.22V21.19h8.43a6.89,6.89,0,0,0,5.07-1.76A6.83,6.83,0,0,0,150.43,14.36Z"/><path class="cls-1" d="M162.62,42.23v-41h29.85V7.87h-21.9v10.3h20.26V24.8H170.57V35.59h23v6.64Z"/><path class="cls-1" d="M221.16,42.23,204.62,10.66q.48,4.61.48,7.39V42.23H198v-41h9.08L223.9,33.06a74,74,0,0,1-.48-8V1.23h7.06v41Z"/><path class="cls-1" d="M270.34,21.43A25.1,25.1,0,0,1,268,32.5a16.69,16.69,0,0,1-6.52,7.23,18.64,18.64,0,0,1-9.66,2.5H236.51v-41h13.74q9.58,0,14.84,5.23T270.34,21.43Zm-8,0q0-6.61-3.18-10.09t-9.08-3.47h-5.63V35.59h6.74a9.83,9.83,0,0,0,8.13-3.81Q262.33,28,262.34,21.43Z"/><path class="cls-1" d="M275,42.23v-41h29.85V7.87h-21.9v10.3h20.25V24.8H282.92V35.59h23v6.64Z"/><path class="cls-1" d="M333.5,42.23,317,10.66a72.28,72.28,0,0,1,.49,7.39V42.23h-7.06v-41h9.08l16.78,31.83a74,74,0,0,1-.48-8V1.23h7.05v41Z"/><path class="cls-1" d="M366,7.87V42.23H358V7.87H345.78V1.23h32.49V7.87Z"/><path class="cls-1" d="M412.85,36.06q7.18,0,10-7.8l6.93,2.83a17.75,17.75,0,0,1-6.56,8.82,18.14,18.14,0,0,1-10.36,2.9q-9.17,0-14.16-5.6t-5-15.67q0-10.09,4.83-15.5t14-5.42q6.67,0,10.88,2.9a15.3,15.3,0,0,1,5.9,8.51l-7,2.06a8.83,8.83,0,0,0-3.49-4.9,10.46,10.46,0,0,0-6.13-1.82c-3.59,0-6.32,1.21-8.18,3.61s-2.79,5.93-2.79,10.56,1,8.31,2.87,10.8A9.85,9.85,0,0,0,412.85,36.06Z"/><path class="cls-1" d="M458.07,42.23V24.66H441.53V42.23h-7.94v-41h7.94V17.56h16.54V1.23H466v41Z"/><path class="cls-1" d="M472.05,42.23v-41H501.9V7.87H480v10.3h20.25V24.8H480V35.59h23v6.64Z"/><path class="cls-1" d="M515.41,7.87V20.55h19.43v6.64H515.41v15h-7.94v-41h28V7.87Z"/></svg>